SplineFontDB: 3.2
FontName: RacersFinal
FullName: RacersFont-Final
FamilyName: RacersFont
Weight: Regular
Copyright: Copyright (c) 2020, Davide Azzaretto/Envy
UComments: "2020-7-29: Created with FontForge (http://fontforge.org)"
Version: 001.000
ItalicAngle: 0
UnderlinePosition: -100
UnderlineWidth: 50
Ascent: 800
Descent: 200
InvalidEm: 0
LayerCount: 2
Layer: 0 0 "Sfondo" 1
Layer: 1 0 "Fore" 0
XUID: [1021 7 -371634410 3782331]
StyleMap: 0x0000
FSType: 0
OS2Version: 0
OS2_WeightWidthSlopeOnly: 0
OS2_UseTypoMetrics: 1
CreationTime: 1596040100
ModificationTime: 1600070508
PfmFamily: 17
TTFWeight: 400
TTFWidth: 5
LineGap: 90
VLineGap: 0
OS2TypoAscent: 0
OS2TypoAOffset: 1
OS2TypoDescent: 0
OS2TypoDOffset: 1
OS2TypoLinegap: 90
OS2WinAscent: 0
OS2WinAOffset: 1
OS2WinDescent: 0
OS2WinDOffset: 1
HheadAscent: 0
HheadAOffset: 1
HheadDescent: 0
HheadDOffset: 1
OS2Vendor: 'PfEd'
MarkAttachClasses: 1
DEI: 91125
LangName: 1033
Encoding: UnicodeFull
UnicodeInterp: none
NameList: AGL For New Fonts
DisplaySize: -48
AntiAlias: 1
FitToEm: 0
WinInfo: 38 38 14
BeginPrivate: 0
EndPrivate
BeginChars: 1114112 238

StartChar: E
Encoding: 69 69 0
Width: 434
Flags: W
HStem: 710 20G<216.2 353.588>
LayerCount: 2
Fore
SplineSet
11 680 m 5
 353 730 l 5
 356 628 l 29
 124 566 l 5
 168 432 l 5
 278 448 l 29
 296 324 l 29
 208 294 l 5
 214 234 l 5
 424 242 l 5
 422 20 l 29
 70 58 l 29
 11 680 l 5
EndSplineSet
Validated: 1
EndChar

StartChar: T
Encoding: 84 84 1
Width: 450
Flags: W
VStem: 181 96<86 532> 182 102<86 532>
LayerCount: 2
Fore
SplineSet
182 86 m 25x40
 284 18 l 25x40
 277 564 l 1
 385 606 l 25
 443 714 l 25
 11 706 l 25
 77 512 l 25
 181 532 l 1x80
 182 86 l 25x40
EndSplineSet
Validated: 9
EndChar

StartChar: A
Encoding: 65 65 2
Width: 390
Flags: W
LayerCount: 2
Fore
SplineSet
118 394 m 29
 165 536 l 5
 211 396 l 5
 118 394 l 29
18 70 m 5
 192 40 l 29
 191 260 l 5
 245 192 l 5
 262 38 l 29
 374 82 l 5
 254 718 l 5
 122 718 l 5
 18 70 l 5
EndSplineSet
Validated: 9
EndChar

StartChar: O
Encoding: 79 79 3
Width: 546
Flags: W
HStem: 0 254<201 388>
LayerCount: 2
Fore
SplineSet
230 460 m 0
 230 346 286 254 354 254 c 0
 422 254 478 346 478 460 c 0
 478 574 422 666 354 666 c 0
 286 666 230 574 230 460 c 0
19 399 m 0
 8.0703125 562.940429688 84 726 254 746 c 0
 421.842773438 765.74609375 550 674 530 398 c 0
 514.388671875 182.564453125 429 0 260 0 c 0
 142 0 30 234 19 399 c 0
EndSplineSet
Validated: 33
EndChar

StartChar: N
Encoding: 78 78 4
Width: 576
Flags: W
HStem: 726 20G<56.0062 78.44> 726 20G<56.0062 78.44 288.279 450.882>
LayerCount: 2
Fore
SplineSet
25 102 m 1x80
 57 746 l 1
 325 496 l 1
 285 740 l 1
 567 706 l 1
 535 84 l 1
 245 386 l 1
 327 28 l 1
 25 102 l 1x80
EndSplineSet
Validated: 1
EndChar

StartChar: R
Encoding: 82 82 5
Width: 372
Flags: W
HStem: 621.62 90.3799<162.1 241.393>
LayerCount: 2
Fore
SplineSet
152.349609375 472.139648438 m 5
 192.650390625 480.219726562 214.279296875 475.389648438 234.25 528.700195312 c 4
 259.599609375 596.370117188 236.200195312 606.469726562 226.450195312 620.610351562 c 5
 162.099609375 621.620117188 l 5
 152.349609375 472.139648438 l 5
22 48 m 25
 73 712 l 1
 269 712 l 17
 309 702 333 678 345 642 c 24
 361 594 353 560 335 514 c 24
 321 477 294 469 267 440 c 25
 315 396 l 1
 336 142 l 25
 252 106 l 25
 235 320 l 1
 193 376 l 1
 176 86 l 25
 22 48 l 25
EndSplineSet
Validated: 33
EndChar

StartChar: I
Encoding: 73 73 6
Width: 460
Flags: W
HStem: 16 21G<243.739 423.083> 724 20G<346.436 449.22> 724 20G<346.436 449.22>
VStem: 149 160<287.75 538> 151 150<260 502.25>
LayerCount: 2
Fore
SplineSet
422 16 m 25xc8
 12 62 l 25
 17 256 l 1
 151 260 l 25xc8
 149 566 l 25
 53 564 l 25
 49 666 l 1
 449 744 l 25
 451 562 l 1
 309 538 l 25xd0
 301 252 l 25
 435 256 l 1
 422 16 l 25xc8
EndSplineSet
Validated: 1
EndChar

StartChar: S
Encoding: 83 83 7
Width: 436
Flags: W
LayerCount: 2
Fore
SplineSet
41 501 m 0
 1.375 548.55078125 8.0634765625 631.143554688 63 685 c 0
 168.001953125 787.9375 380.540039062 721.489257812 422 662 c 0
 345 524 l 1
 273.319335938 558.92578125 165.846679688 579.775390625 191 491 c 0
 213.094726562 413.020507812 316 275 363 209 c 1
 396 128 330.376953125 34.935546875 249 39 c 0
 111.157226562 45.8857421875 46 142 46 142 c 1
 105 201 l 1
 105 201 351 -8 149 340 c 0
 41 501 l 0
EndSplineSet
Validated: 33
EndChar

StartChar: H
Encoding: 72 72 8
Width: 556
Flags: W
HStem: 720 20G<12.3393 205 400.289 545>
VStem: 56 194<68 172.533> 401 144<578.552 748>
LayerCount: 2
Fore
SplineSet
56 68 m 25
 11 740 l 1
 205 738 l 25
 251 380 l 25
 387 364 l 25
 401 758 l 25
 545 748 l 1
 516 46 l 25
 370 68 l 25
 381 314 l 1
 251 332 l 1
 250 38 l 25
 56 68 l 25
EndSplineSet
Validated: 1
EndChar

StartChar: D
Encoding: 68 68 9
Width: 520
Flags: W
HStem: 594 117<129 230.917>
LayerCount: 2
Fore
SplineSet
173 144 m 25
 197 148 235 154 235 154 c 0
 381 244 344 542 191 594 c 9
 129 592 l 25
 173 144 l 25
83 0 m 1
 13 710 l 1
 291 711 l 1
 592.61328125 652.172851562 559.346679688 65.8798828125 315 17 c 0
 315 17 206 0 83 0 c 1
EndSplineSet
Validated: 33
EndChar

StartChar: L
Encoding: 76 76 10
Width: 438
Flags: W
HStem: 690 20G<47 119.627> 690 20G<47 119.627>
VStem: 11 108<572.233 681.944>
LayerCount: 2
Fore
SplineSet
54 18 m 25xa0
 11 680 l 1
 119 710 l 25
 135 200 l 25
 355 232 l 1
 422 18 l 25
 54 18 l 25xa0
EndSplineSet
Validated: 1
EndChar

StartChar: F
Encoding: 70 70 11
Width: 374
Flags: W
HStem: 352 122<89 341> 568 136<69 252> 570 144<112 315>
LayerCount: 2
Fore
SplineSet
40 28 m 25xc0
 7 704 l 1xc0
 357 714 l 25
 315 570 l 25xa0
 69 568 l 25
 73 476 l 25
 343 474 l 25
 341 352 l 25
 89 356 l 1
 116 28 l 25
 40 28 l 25xc0
EndSplineSet
Validated: 1
EndChar

StartChar: C
Encoding: 67 67 12
Width: 494
Flags: W
LayerCount: 2
Fore
SplineSet
416 59 m 4
 370 156 l 5
 370 156 99 93 125 329 c 4
 158.728515625 635.154296875 417 522 417 522 c 4
 483 666 l 5
 -52.1611328125 991.02734375 -202.555664062 -88.5048828125 416 59 c 4
EndSplineSet
Validated: 41
EndChar

StartChar: M
Encoding: 77 77 13
Width: 690
Flags: W
VStem: 47 146<70 174.632>
LayerCount: 2
Fore
SplineSet
295 0 m 25
 425 390 l 25
 453 54 l 25
 669 94 l 25
 667 630 l 25
 403 710 l 25
 281 250 l 25
 205 680 l 25
 9 638 l 25
 47 70 l 25
 193 52 l 25
 189 354 l 25
 295 0 l 25
EndSplineSet
Validated: 9
EndChar

StartChar: U
Encoding: 85 85 14
Width: 390
Flags: W
HStem: 686 20G<104.405 141.258 325.829 375>
VStem: 327 48<594.462 706>
LayerCount: 2
Fore
SplineSet
11 632 m 1
 139 706 l 1
 188 272 l 17
 230 54 292 138 301 270 c 0
 327 714 l 9
 375 706 l 1
 374 228 l 1
 374 228 354 -8 228 24 c 0
 50.2705078125 69.1376953125 11 632 11 632 c 1
EndSplineSet
Validated: 33
EndChar

StartChar: G
Encoding: 71 71 15
Width: 404
Flags: W
LayerCount: 2
Fore
SplineSet
317 61 m 0
 -115.401367188 -117.344726562 -81 990 387 684 c 1
 385 463 l 0
 371.283203125 515.546875 84 686 76 431 c 0
 68.3408203125 186.872070312 144.329101562 161.079101562 219 179 c 0
 269 191 251 307 237 348 c 0
 197 384 l 9
 393 380 l 1
 379 169 l 1
 368 69 317 61 317 61 c 0
EndSplineSet
Validated: 33
EndChar

StartChar: backslash
Encoding: 92 92 16
Width: 370
Flags: W
LayerCount: 2
Fore
SplineSet
224 30 m 25
 360 32 l 25
 142 698 l 25
 12 700 l 25
 224 30 l 25
EndSplineSet
Validated: 9
EndChar

StartChar: slash
Encoding: 47 47 17
Width: 393
Flags: W
LayerCount: 2
Fore
SplineSet
31 30 m 1
 167 32 l 1
 369 698 l 1
 239 700 l 1
 31 30 l 1
EndSplineSet
Validated: 9
EndChar

StartChar: Y
Encoding: 89 89 18
Width: 466
Flags: W
LayerCount: 2
Fore
SplineSet
179 41 m 1
 307 41 l 1
 309 291 l 1
 445 637 l 1
 357 705 l 25
 261 383 l 1
 149 765 l 25
 15 659 l 25
 177 237 l 1
 179 41 l 1
EndSplineSet
Validated: 9
EndChar

StartChar: P
Encoding: 80 80 19
Width: 338
Flags: W
HStem: 42 21G<20.3096 64.7059> 688 20G<30 257>
VStem: 20 76<76 324 410 494.2> 30 69<235.8 324 410 520>
LayerCount: 2
Fore
SplineSet
99 410 m 1xd0
 161 418 186.275390625 421.217773438 217 474 c 0
 256 541 191 552 157 554 c 1
 97 520 l 1
 99 410 l 1xd0
101 324 m 1
 96 76 l 1
 20 42 l 1xe0
 30 688 l 1
 226 708 l 1
 288 696 300 674 312 638 c 0
 328 590 315.481445312 543.200195312 298 497 c 0
 284 460 253 419 226 390 c 1
 101 324 l 1
EndSplineSet
Validated: 33
EndChar

StartChar: W
Encoding: 87 87 20
Width: 578
Flags: W
LayerCount: 2
Fore
SplineSet
165 35 m 25
 283 345 l 25
 377 67 l 1
 441 75 l 25
 563 611 l 1
 445 665 l 25
 373 353 l 1
 279 679 l 1
 207 441 l 25
 155 685 l 1
 11 611 l 25
 165 35 l 25
EndSplineSet
Validated: 9
EndChar

StartChar: B
Encoding: 66 66 21
Width: 474
Flags: W
LayerCount: 2
Fore
SplineSet
144 127 m 1
 244 161 l 0
 296 289 203 291 203 291 c 1
 131 283 l 25
 144 127 l 1
249 469 m 0
 413 531 279 593 279 593 c 9
 223 587 l 25
 249 469 l 0
49 39 m 1
 9 667 l 1
 285 683 l 1
 285 683 505 571 365 425 c 0
 365 425 603 253 323 49 c 0
 323 49 157 49 49 39 c 1
EndSplineSet
Validated: 33
EndChar

StartChar: V
Encoding: 86 86 22
Width: 460
Flags: W
HStem: 669 20G<131.2 213.523>
LayerCount: 2
Fore
SplineSet
280 37 m 25
 176 91 l 1
 10 639 l 25
 212 689 l 1
 242 295 l 25
 424 651 l 1
 450 635 l 1
 280 37 l 25
EndSplineSet
Validated: 1
EndChar

StartChar: K
Encoding: 75 75 23
Width: 376
Flags: W
VStem: 44 110<53.6 122.5>
LayerCount: 2
Fore
SplineSet
44 33 m 25
 154 55 l 25
 126 325 l 25
 292 53 l 25
 364 59 l 25
 208 401 l 1
 342 679 l 1
 300 693 l 1
 170 459 l 1
 190 699 l 25
 12 677 l 25
 44 33 l 25
EndSplineSet
Validated: 9
EndChar

StartChar: J
Encoding: 74 74 24
Width: 596
Flags: W
LayerCount: 2
Fore
SplineSet
155 440 m 0
 17 314 l 1
 11 181 107.940429688 -17.837890625 271 42 c 0
 380 82 475 428 433 550 c 0
 433 550 542 578 579 589 c 1
 569 766 l 1
 93 674 l 1
 107 548 l 1
 271 544 l 1
 273 344 l 1
 235 142 141 308 155 440 c 0
EndSplineSet
Validated: 41
EndChar

StartChar: X
Encoding: 88 88 25
Width: 384
Flags: W
HStem: 685 20G<84.4444 155.176>
LayerCount: 2
Fore
SplineSet
170 31 m 1
 16 73 l 25
 126 373 l 1
 32 669 l 1
 150 705 l 1
 194 535 l 1
 278 657 l 1
 330 633 l 25
 242 369 l 1
 370 153 l 1
 276 77 l 1
 206 265 l 1
 170 31 l 1
EndSplineSet
Validated: 1
EndChar

StartChar: Q
Encoding: 81 81 26
Width: 385
Flags: W
HStem: 151 253<142.5 247.5> 652 83<142.5 259.652>
VStem: 14 169<436.265 618.922> 288 86<434.427 594.325>
LayerCount: 2
Fore
SplineSet
192 151 m 5
 252 202 l 4
 287 153 296 141 374 162 c 5
 320 64 l 4
 260 10 192 151 192 151 c 5
183 532 m 0
 183 469 213 404 236 404 c 0
 259 404 288 467 288 530 c 0
 288 593 257 652 234 652 c 0
 211 652 183 595 183 532 c 0
14 490 m 4
 14 651 93 735 192 735 c 4
 291 735 374 625 374 464 c 4
 374 303 291 151 192 151 c 4
 93 151 14 329 14 490 c 4
EndSplineSet
Validated: 37
EndChar

StartChar: Z
Encoding: 90 90 27
Width: 494
Flags: W
HStem: 678 20G<13.0968 277.667>
LayerCount: 2
Fore
SplineSet
37 450 m 25
 11 698 l 1
 411 668 l 25
 227 318 l 1
 487 322 l 1
 421 54 l 25
 73 116 l 1
 229 478 l 1
 37 450 l 25
EndSplineSet
Validated: 1
EndChar

StartChar: zero
Encoding: 48 48 28
Width: 560
Flags: W
HStem: 0 178<202.889 346> 646 136<171.828 229.036>
LayerCount: 2
Fore
SplineSet
105 418 m 4
 105 304 159 178 227 178 c 4
 295 178 289 304 289 418 c 4
 289 532 249 646 181 646 c 4
 113 646 105 532 105 418 c 4
33 386 m 4
 1 696 155.061523438 785.87109375 277 782 c 4
 403 778 553 684 533 408 c 4
 517.388671875 192.564453125 415 0 277 0 c 4
 149 0 55.1787109375 171.141601562 33 386 c 4
EndSplineSet
Validated: 33
EndChar

StartChar: one
Encoding: 49 49 29
Width: 349
Flags: W
VStem: 199 96<82 175.882>
LayerCount: 2
Fore
SplineSet
25 534 m 1
 165 538 l 1
 199 82 l 1
 295 28 l 1
 317 742 l 1
 177 720 l 1
 25 534 l 1
EndSplineSet
Validated: 9
EndChar

StartChar: two
Encoding: 50 50 30
Width: 448
Flags: W
HStem: 44 150<258.049 394> 676 20G<22 23.2727>
LayerCount: 2
Fore
SplineSet
36 476 m 0
 22 696 l 1
 22 696 346 824 408 590 c 0
 445.3515625 449.028320312 372 386 258 190 c 0
 258 190 325 193 394 194 c 9
 394 44 l 25
 86 46 l 1
 178 140 274 250 258 388 c 24
 247 480 202 584 36 476 c 0
EndSplineSet
Validated: 33
EndChar

StartChar: three
Encoding: 51 51 31
Width: 402
Flags: W
LayerCount: 2
Fore
SplineSet
353 668 m 0
 243.5390625 837.665039062 13 696 13 696 c 1
 27 476 l 0
 193 584 225 514 225 514 c 0
 283 438 107 274 107 274 c 0
 371 298 259.594726562 153.713867188 35 180 c 1
 41 82 l 0
 59 38 199 36 199 36 c 1
 379 66 444 167 358 333 c 0
 358 333 324 369 272 355 c 1
 348 433 409.922851562 579.768554688 353 668 c 0
EndSplineSet
Validated: 41
EndChar

StartChar: four
Encoding: 52 52 32
Width: 410
Flags: W
LayerCount: 2
Fore
SplineSet
224.25 393.08984375 m 1
 82.5 364.200195312 l 1
 219.4296875 597.827148438 l 1
 224.25 393.08984375 l 1
210.75 50.6904296875 m 1
 367.125 64.599609375 l 1
 357 259.33984375 l 1
 396.375 265.759765625 l 1
 389.625 410.209960938 l 1
 350.25 408.0703125 l 1
 328.875 737.629882812 l 1
 217.5 732.280273438 l 1
 10.5 333.169921875 l 1
 16.125 234.73046875 l 1
 199.5 247.5703125 l 25
 210.75 50.6904296875 l 1
EndSplineSet
Validated: 9
EndChar

StartChar: five
Encoding: 53 53 33
Width: 365
Flags: W
HStem: 693.72 20G<195.768 342.056>
VStem: 19.9199 325.26
LayerCount: 2
Fore
SplineSet
19.919921875 74.08984375 m 0
 75.1728515625 155.459960938 l 1
 107.490234375 160.610351562 157.712890625 145.268554688 191.932617188 186.360351562 c 0
 259.6953125 267.73046875 237.1796875 308.059570312 219.037109375 354.25 c 0
 191.932617188 423.259765625 40.76953125 352.190429688 40.76953125 352.190429688 c 0
 22.0048828125 670.459960938 l 1
 345.1796875 713.719726562 l 1
 319.1171875 546.860351562 l 1
 116.872070312 548.919921875 l 1
 116.872070312 481.969726562 l 1
 167.955078125 486.08984375 l 1
 247.184570312 484.030273438 327.45703125 443.860351562 326.415039062 343.950195312 c 0
 325.538085938 259.922851562 286.799804688 134.860351562 210.697265625 103.959960938 c 0
 134.956054688 73.20703125 19.919921875 74.08984375 19.919921875 74.08984375 c 0
EndSplineSet
Validated: 33
EndChar

StartChar: six
Encoding: 54 54 34
Width: 366
Flags: W
HStem: 44.9746 116.025<132.869 261.444> 338.905 88.3994<227.022 283.907> 671.4 20G<180.971 310.774>
VStem: 6.13379 199.92<178.441 252.347> 300.063 55.9307<179.518 324.005>
LayerCount: 2
Fore
SplineSet
206.053710938 249.400390625 m 0
 206.053710938 200.780273438 231.043945312 161 253.654296875 161 c 0
 276.263671875 161 300.063476562 199.674804688 300.063476562 248.294921875 c 0
 300.063476562 296.915039062 279.833984375 338.905273438 257.223632812 338.905273438 c 0
 234.614257812 338.905273438 206.053710938 298.01953125 206.053710938 249.400390625 c 0
7.32421875 236.139648438 m 1
 9.7041015625 377.580078125 82.2939453125 566.53515625 163.213867188 669.299804688 c 0
 350.043945312 691.400390625 l 1
 271.50390625 611.83984375 219.774414062 430.423828125 221.5234375 420.674804688 c 0
 221.5234375 420.674804688 90.6240234375 307.96484375 7.32421875 236.139648438 c 1
6.1337890625 236.139648438 m 0
 6.1337890625 341.115234375 84.6943359375 425.478515625 181.063476562 427.3046875 c 0
 297.68359375 429.514648438 354.803710938 396.365234375 355.994140625 236.139648438 c 0
 356.7734375 131.16796875 277.454101562 44.974609375 181.063476562 44.974609375 c 0
 84.673828125 44.974609375 6.1337890625 131.165039062 6.1337890625 236.139648438 c 0
EndSplineSet
Validated: 37
EndChar

StartChar: seven
Encoding: 55 55 35
Width: 470
Flags: W
HStem: 681.056 20G<232.145 447.327> 681.056 20G<232.145 447.327>
LayerCount: 2
Fore
SplineSet
49.697265625 470.64453125 m 25x40
 13.23828125 661.3671875 l 25
 454.515625 701.055664062 l 25
 214.389648438 32.9736328125 l 25
 77.35546875 91.4033203125 l 25
 298.622070312 490.48828125 l 25
 49.697265625 470.64453125 l 25x40
EndSplineSet
Validated: 1
EndChar

StartChar: eight
Encoding: 56 56 36
Width: 429
Flags: W
HStem: 36.9111 96.2598<152.213 328.853> 389.544 47.6533<96.0312 326.473> 629.716 88.6348<117.624 268.862>
VStem: 3.66406 270.436<148.519 327.43> 359.801 58.0869<152.391 328.822>
LayerCount: 2
Fore
SplineSet
80.794921875 540.12890625 m 0
 80.794921875 490.569335938 98.888671875 450.540039062 121.741210938 450.540039062 c 0
 144.594726562 450.540039062 162.688476562 490.569335938 162.688476562 540.12890625 c 0
 162.688476562 589.6875 144.594726562 629.715820312 121.741210938 629.715820312 c 0
 98.888671875 629.715820312 80.794921875 589.6875 80.794921875 540.12890625 c 0
274.099609375 238.0078125 m 0
 274.099609375 179.870117188 293.143554688 133.170898438 316.94921875 133.170898438 c 0
 340.755859375 133.170898438 359.80078125 179.870117188 359.80078125 238.0078125 c 0
 359.80078125 296.143554688 340.755859375 342.844726562 316.94921875 342.844726562 c 0
 293.143554688 342.844726562 274.099609375 296.143554688 274.099609375 238.0078125 c 0
3.6640625 240.866210938 m 0
 3.6640625 359.046875 91.2705078125 437.197265625 209.346679688 437.197265625 c 0
 327.424804688 437.197265625 417.887695312 367.624023438 417.887695312 249.444335938 c 0
 417.887695312 131.264648438 329.329101562 36.9111328125 211.251953125 36.9111328125 c 0
 93.173828125 36.9111328125 3.6640625 122.686523438 3.6640625 240.866210938 c 0
9.376953125 537.268554688 m 0
 15.0908203125 633.528320312 96.03125 718.350585938 211.251953125 718.350585938 c 0
 326.47265625 718.350585938 433.442382812 613.94921875 408.151367188 523.544921875 c 0
 381.62109375 428.71484375 326.47265625 389.543945312 211.251953125 389.543945312 c 0
 96.03125 389.543945312 3.787109375 443.081054688 9.376953125 537.268554688 c 0
EndSplineSet
Validated: 37
EndChar

StartChar: nine
Encoding: 57 57 37
Width: 392
Flags: W
HStem: 43 21G<163 243> 323.361 99.7891<91.7844 148.904>
VStem: 16.9961 58.1221<439.663 598.122>
LayerCount: 2
Fore
SplineSet
173.567382812 519.891601562 m 0
 175.47265625 573.428710938 150.848632812 618.120117188 127.161132812 618.922851562 c 0
 103.471679688 619.7265625 77.0224609375 577.984375 75.1181640625 524.446289062 c 0
 73.212890625 470.908203125 92.76171875 423.954101562 116.451171875 423.150390625 c 0
 140.138671875 422.34765625 171.663085938 466.354492188 173.567382812 519.891601562 c 0
383.540039062 527.39453125 m 1
 395 477 243 57 243 57 c 0
 115 43 l 1
 211 210 224.4140625 311.412109375 225 328 c 0
 225.009765625 328.276367188 225.002929688 328.504882812 224.979492188 328.681640625 c 0
 224.979492188 328.681640625 293.453125 451.26171875 383.540039062 527.39453125 c 1
383.540039062 527.39453125 m 0
 379.427734375 411.802734375 293.81640625 321.694335938 192.779296875 323.10546875 c 0
 189.102539062 323.157226562 185.482421875 323.241210938 181.920898438 323.361328125 c 0
 67.046875 327.25390625 12.1181640625 368.650390625 16.99609375 539.81640625 c 0
 17.0126953125 540.380859375 17.0302734375 540.943359375 17.05078125 541.505859375 c 0
 21.1357421875 656.330078125 107.262695312 747.51171875 207.7578125 744.106445312 c 0
 308.744140625 740.684570312 387.65234375 642.98828125 383.540039062 527.39453125 c 0
EndSplineSet
Validated: 37
EndChar

StartChar: Ccedilla
Encoding: 199 199 38
Width: 506
Flags: W
LayerCount: 2
Fore
SplineSet
177.739257812 -103.379882812 m 1
 177.739257812 -103.379882812 215.467773438 -5.26171875 284 -10 c 0
 339.1328125 -13.8125 373.319335938 -151.6796875 290.159179688 -179.049804688 c 0
 290.159179688 -179.049804688 279.379882812 -106.600585938 277.83984375 -100.16015625 c 1
 177.739257812 -103.379882812 l 1
424 59 m 0
 378 156 l 1
 378 156 107 93 133 329 c 0
 166.728515625 635.154296875 425 522 425 522 c 0
 491 666 l 1
 -44.1611328125 991.02734375 -194.555664062 -88.5048828125 424 59 c 0
EndSplineSet
Validated: 41
EndChar

StartChar: Ntilde
Encoding: 209 209 39
Width: 576
Flags: W
LayerCount: 2
Fore
SplineSet
152 742 m 1
 256 777 273 756 328 740 c 0
 387.447265625 722.706054688 428.870117188 709.05859375 466 740 c 0
 468 682 l 1
 421 661 379.5390625 658.798828125 328 678 c 0
 277 697 259 725 152 684 c 0
 152 742 l 1
17 -54 m 1
 49 590 l 1
 317 340 l 1
 277 584 l 1
 559 550 l 1
 527 -72 l 1
 237 230 l 1
 319 -128 l 1
 17 -54 l 1
EndSplineSet
Validated: 33
EndChar

StartChar: asciitilde
Encoding: 126 126 40
Width: 484
Flags: W
LayerCount: 2
Fore
SplineSet
15.9091796875 445.650390625 m 1
 164.369140625 511.362304688 188.63671875 471.935546875 267.149414062 441.895507812 c 0
 352.010742188 409.42578125 411.141601562 383.802734375 464.14453125 441.895507812 c 0
 467 333 l 1
 399.907226562 293.573242188 340.721679688 289.440429688 267.149414062 325.490234375 c 0
 194.346679688 361.163085938 168.65234375 413.732421875 15.9091796875 336.754882812 c 0
 15.9091796875 445.650390625 l 1
EndSplineSet
Validated: 33
EndChar

StartChar: question
Encoding: 63 63 41
Width: 334
Flags: W
VStem: 159 60<223 289.5>
LayerCount: 2
Fore
SplineSet
127.307617188 63.4619140625 m 0
 115 93 131.768554688 128.154296875 165 142 c 0
 198.23046875 155.846679688 235 143 247.307617188 113.461914062 c 0
 259.615234375 83.9228515625 242.845703125 48.76953125 209.615234375 34.9228515625 c 0
 176.384765625 21.0771484375 139.615234375 33.9228515625 127.307617188 63.4619140625 c 0
13 639 m 0
 91 561 l 1
 109 590 145.416992188 629.78125 199 592 c 0
 257.5078125 550.74609375 196 502 150 478 c 0
 159 208 l 1
 219 223 l 1
 245 470 l 1
 328 499 346.643554688 617.856445312 283 665 c 0
 175 745 120 703 13 639 c 0
EndSplineSet
Validated: 41
EndChar

StartChar: period
Encoding: 46 46 42
Width: 158
Flags: W
LayerCount: 2
Fore
SplineSet
19.3076171875 49.4619140625 m 0
 7 79 23.7685546875 114.154296875 57 128 c 0
 90.23046875 141.846679688 127 129 139.307617188 99.4619140625 c 0
 151.615234375 69.9228515625 134.845703125 34.76953125 101.615234375 20.9228515625 c 0
 68.384765625 7.0771484375 31.615234375 19.9228515625 19.3076171875 49.4619140625 c 0
EndSplineSet
Validated: 33
EndChar

StartChar: colon
Encoding: 58 58 43
Width: 194
Flags: W
LayerCount: 2
Fore
SplineSet
27.3916015625 63.4482421875 m 4
 12.5 96.751953125 32.7890625 136.388671875 73 152 c 4
 113.208007812 167.612304688 157.69921875 153.126953125 172.591796875 119.823242188 c 4
 187.484375 86.517578125 167.192382812 46.8828125 126.984375 31.2705078125 c 4
 86.775390625 15.6591796875 42.2841796875 30.142578125 27.3916015625 63.4482421875 c 4
36.3076171875 367.461914062 m 4
 24 397 40.7685546875 432.154296875 74 446 c 4
 107.23046875 459.846679688 144 447 156.307617188 417.461914062 c 4
 168.615234375 387.922851562 151.845703125 352.76953125 118.615234375 338.922851562 c 4
 85.384765625 325.077148438 48.615234375 337.922851562 36.3076171875 367.461914062 c 4
EndSplineSet
Validated: 33
EndChar

StartChar: comma
Encoding: 44 44 44
Width: 186
Flags: W
LayerCount: 2
Fore
SplineSet
159 122 m 1
 176 75 182 45 105 -59 c 0
 82.015625 -90.0439453125 132 -6 127 39 c 0
 159 122 l 1
15.3916015625 63.4482421875 m 0
 0.5 96.751953125 20.7890625 136.388671875 61 152 c 0
 101.208007812 167.612304688 145.700195312 153.126953125 160.591796875 119.823242188 c 0
 175.484375 86.517578125 155.192382812 46.8818359375 114.984375 31.2705078125 c 0
 74.775390625 15.6591796875 30.2841796875 30.142578125 15.3916015625 63.4482421875 c 0
EndSplineSet
Validated: 37
EndChar

StartChar: quotesingle
Encoding: 39 39 45
Width: 210
Flags: W
HStem: 667.018 20G<140.234 149.42>
LayerCount: 2
Fore
SplineSet
144.569335938 687.017578125 m 5
 154.270507812 639.311523438 157.694335938 608.859375 113.75390625 503.295898438 c 4
 100.638671875 471.78515625 129.162109375 557.092773438 126.30859375 602.76953125 c 4
 144.569335938 687.017578125 l 5
62.6181640625 627.584960938 m 4
 54.12109375 661.390625 65.69921875 701.623046875 88.6455078125 717.46875 c 4
 111.58984375 733.31640625 136.98046875 718.612304688 145.477539062 684.80859375 c 4
 153.9765625 651.001953125 142.396484375 610.770507812 119.452148438 594.923828125 c 4
 96.5068359375 579.078125 71.1171875 593.778320312 62.6181640625 627.584960938 c 4
EndSplineSet
Validated: 37
EndChar

StartChar: exclam
Encoding: 33 33 46
Width: 196
Flags: W
HStem: 676 20G<118.448 173.504>
VStem: 11 164
LayerCount: 2
Fore
SplineSet
137 188 m 1
 73 226 l 1
 11 638 l 1
 175 696 l 1
 137 188 l 1
51.3076171875 49.4619140625 m 0
 39 79 55.7685546875 114.154296875 89 128 c 0
 122.23046875 141.846679688 159 129 171.307617188 99.4619140625 c 0
 183.615234375 69.9228515625 166.845703125 34.76953125 133.615234375 20.9228515625 c 0
 100.384765625 7.0771484375 63.615234375 19.9228515625 51.3076171875 49.4619140625 c 0
EndSplineSet
Validated: 33
EndChar

StartChar: semicolon
Encoding: 59 59 47
Width: 179
Flags: W
LayerCount: 2
Fore
SplineSet
19.3076171875 367.461914062 m 0
 7 397 23.7685546875 432.154296875 57 446 c 0
 90.23046875 459.846679688 127 447 139.307617188 417.461914062 c 0
 151.615234375 387.922851562 134.845703125 352.76953125 101.615234375 338.922851562 c 0
 68.384765625 325.077148438 31.615234375 337.922851562 19.3076171875 367.461914062 c 0
154 122 m 1
 171 75 177 45 100 -59 c 0
 77.015625 -90.0439453125 127 -6 122 39 c 0
 154 122 l 1
10.3916015625 63.4482421875 m 0
 -4.5 96.751953125 15.7890625 136.388671875 56 152 c 0
 96.2080078125 167.612304688 140.700195312 153.126953125 155.591796875 119.823242188 c 0
 170.484375 86.517578125 150.192382812 46.8818359375 109.984375 31.2705078125 c 0
 69.775390625 15.6591796875 25.2841796875 30.142578125 10.3916015625 63.4482421875 c 0
EndSplineSet
Validated: 37
EndChar

StartChar: Oslash
Encoding: 216 216 48
Width: 698
Flags: W
HStem: 0 254<329.524 474> 742 20G<633.451 662.538>
LayerCount: 2
Fore
SplineSet
316 460 m 0
 316 346 372 254 440 254 c 0
 508 254 564 346 564 460 c 0
 564 574 508 666 440 666 c 0
 372 666 316 574 316 460 c 0
105 399 m 0
 94.0703125 562.940429688 170 726 340 746 c 0
 507.842773438 765.74609375 636 674 616 398 c 0
 600.388671875 182.564453125 515 0 346 0 c 0
 228 0 116 234 105 399 c 0
21 44 m 25
 651 762 l 25
 681 710 l 25
 101 -42 l 25
 21 44 l 25
EndSplineSet
Validated: 37
EndChar

StartChar: a
Encoding: 97 97 49
Width: 390
Flags: W
LayerCount: 2
Fore
SplineSet
118 394 m 25
 165 536 l 1
 211 396 l 1
 118 394 l 25
18 70 m 1
 192 40 l 25
 191 260 l 1
 245 192 l 1
 262 38 l 25
 374 82 l 1
 254 718 l 1
 122 718 l 1
 18 70 l 1
EndSplineSet
Validated: 9
EndChar

StartChar: b
Encoding: 98 98 50
Width: 474
Flags: W
LayerCount: 2
Fore
SplineSet
144 127 m 1
 244 161 l 0
 296 289 203 291 203 291 c 1
 131 283 l 25
 144 127 l 1
249 469 m 0
 413 531 279 593 279 593 c 9
 223 587 l 25
 249 469 l 0
49 39 m 1
 9 667 l 1
 285 683 l 1
 285 683 505 571 365 425 c 0
 365 425 603 253 323 49 c 0
 323 49 157 49 49 39 c 1
EndSplineSet
Validated: 33
EndChar

StartChar: c
Encoding: 99 99 51
Width: 494
Flags: W
LayerCount: 2
Fore
SplineSet
416 59 m 0
 370 156 l 1
 370 156 99 93 125 329 c 0
 158.728515625 635.154296875 417 522 417 522 c 0
 483 666 l 1
 -52.1611328125 991.02734375 -202.555664062 -88.5048828125 416 59 c 0
EndSplineSet
Validated: 41
EndChar

StartChar: d
Encoding: 100 100 52
Width: 520
Flags: W
HStem: 594 117<129 230.917>
LayerCount: 2
Fore
SplineSet
173 144 m 25
 197 148 235 154 235 154 c 0
 381 244 344 542 191 594 c 9
 129 592 l 25
 173 144 l 25
83 0 m 1
 13 710 l 1
 291 711 l 1
 592.61328125 652.172851562 559.346679688 65.8798828125 315 17 c 0
 315 17 206 0 83 0 c 1
EndSplineSet
Validated: 33
EndChar

StartChar: e
Encoding: 101 101 53
Width: 434
Flags: W
HStem: 710 20G<216.2 353.588>
LayerCount: 2
Fore
SplineSet
11 680 m 1
 353 730 l 1
 356 628 l 25
 124 566 l 1
 168 432 l 1
 278 448 l 25
 296 324 l 25
 208 294 l 1
 214 234 l 1
 424 242 l 1
 422 20 l 25
 70 58 l 25
 11 680 l 1
EndSplineSet
Validated: 1
EndChar

StartChar: f
Encoding: 102 102 54
Width: 374
Flags: W
HStem: 352 122<89 341> 568 136<69 252> 570 144<112 315>
LayerCount: 2
Fore
SplineSet
40 28 m 25xc0
 7 704 l 1xc0
 357 714 l 25
 315 570 l 25xa0
 69 568 l 25
 73 476 l 25
 343 474 l 25
 341 352 l 25
 89 356 l 1
 116 28 l 25
 40 28 l 25xc0
EndSplineSet
Validated: 1
EndChar

StartChar: g
Encoding: 103 103 55
Width: 404
Flags: W
LayerCount: 2
Fore
SplineSet
317 61 m 0
 -115.401367188 -117.344726562 -81 990 387 684 c 1
 385 463 l 0
 371.283203125 515.546875 84 686 76 431 c 0
 68.3408203125 186.872070312 144.329101562 161.079101562 219 179 c 0
 269 191 251 307 237 348 c 0
 197 384 l 9
 393 380 l 1
 379 169 l 1
 368 69 317 61 317 61 c 0
EndSplineSet
Validated: 33
EndChar

StartChar: h
Encoding: 104 104 56
Width: 556
Flags: W
HStem: 738 20G<400.289 545>
VStem: 56 194<68 172.533> 401 144<578.552 748>
LayerCount: 2
Fore
SplineSet
56 68 m 25
 11 740 l 1
 205 738 l 25
 251 380 l 25
 387 364 l 25
 401 758 l 25
 545 748 l 1
 516 46 l 25
 370 68 l 25
 381 314 l 1
 251 332 l 1
 250 38 l 25
 56 68 l 25
EndSplineSet
Validated: 1
EndChar

StartChar: i
Encoding: 105 105 57
Width: 460
Flags: W
HStem: 16 21G<243.739 423.083> 724 20G<346.436 449.22>
VStem: 149 160<287.75 538> 151 150<260 502.25>
LayerCount: 2
Fore
SplineSet
422 16 m 25xd0
 12 62 l 25
 17 256 l 1
 151 260 l 25xd0
 149 566 l 25
 53 564 l 25
 49 666 l 1
 449 744 l 25
 451 562 l 1
 309 538 l 25xe0
 301 252 l 25
 435 256 l 1
 422 16 l 25xd0
EndSplineSet
Validated: 1
EndChar

StartChar: j
Encoding: 106 106 58
Width: 596
Flags: W
LayerCount: 2
Fore
SplineSet
155 440 m 0
 17 314 l 1
 11 181 107.940429688 -17.837890625 271 42 c 0
 380 82 475 428 433 550 c 0
 433 550 542 578 579 589 c 1
 569 766 l 1
 93 674 l 1
 107 548 l 1
 271 544 l 1
 273 344 l 1
 235 142 141 308 155 440 c 0
EndSplineSet
Validated: 41
EndChar

StartChar: k
Encoding: 107 107 59
Width: 376
Flags: W
VStem: 44 110<53.6 122.5>
LayerCount: 2
Fore
SplineSet
44 33 m 25
 154 55 l 25
 126 325 l 25
 292 53 l 25
 364 59 l 25
 208 401 l 1
 342 679 l 1
 300 693 l 1
 170 459 l 1
 190 699 l 25
 12 677 l 25
 44 33 l 25
EndSplineSet
Validated: 9
EndChar

StartChar: l
Encoding: 108 108 60
Width: 438
Flags: W
VStem: 11 108<572.233 681.944>
LayerCount: 2
Fore
SplineSet
54 18 m 25
 11 680 l 1
 119 710 l 25
 135 200 l 25
 355 232 l 1
 422 18 l 25
 54 18 l 25
EndSplineSet
Validated: 1
EndChar

StartChar: m
Encoding: 109 109 61
Width: 690
Flags: W
VStem: 47 146<70 174.632>
LayerCount: 2
Fore
SplineSet
295 0 m 25
 425 390 l 25
 453 54 l 25
 669 94 l 25
 667 630 l 25
 403 710 l 25
 281 250 l 25
 205 680 l 25
 9 638 l 25
 47 70 l 25
 193 52 l 25
 189 354 l 25
 295 0 l 25
EndSplineSet
Validated: 9
EndChar

StartChar: n
Encoding: 110 110 62
Width: 576
Flags: W
HStem: 726 20G<56.006 78.44>
LayerCount: 2
Fore
SplineSet
25 102 m 1
 57 746 l 1
 325 496 l 1
 285 740 l 1
 567 706 l 1
 535 84 l 1
 245 386 l 1
 327 28 l 1
 25 102 l 1
EndSplineSet
Validated: 1
EndChar

StartChar: o
Encoding: 111 111 63
Width: 546
Flags: W
HStem: 0 254<175.5 356.891> 666 118<175.5 376.789>
LayerCount: 2
Fore
SplineSet
230 460 m 0
 230 346 286 254 354 254 c 0
 422 254 478 346 478 460 c 0
 478 574 422 666 354 666 c 0
 286 666 230 574 230 460 c 0
19 399 m 0
 8.0703125 562.940429688 84 726 254 746 c 0
 421.842773438 765.74609375 550 674 530 398 c 0
 514.388671875 182.564453125 429 0 260 0 c 0
 142 0 30 234 19 399 c 0
EndSplineSet
Validated: 33
EndChar

StartChar: p
Encoding: 112 112 64
Width: 338
Flags: W
VStem: 20 76<76 324 410 494.2> 30 69<235.8 324 410 520>
LayerCount: 2
Fore
SplineSet
99 410 m 1x40
 161 418 186.275390625 421.217773438 217 474 c 0
 256 541 191 552 157 554 c 1
 97 520 l 1
 99 410 l 1x40
101 324 m 1
 96 76 l 1
 20 42 l 1x80
 30 688 l 1
 226 708 l 1
 288 696 300 674 312 638 c 0
 328 590 315.481445312 543.200195312 298 497 c 0
 284 460 253 419 226 390 c 1
 101 324 l 1
EndSplineSet
Validated: 33
EndChar

StartChar: q
Encoding: 113 113 65
Width: 385
Flags: W
HStem: 652 83<142.5 259.106>
VStem: 12 171<358.857 582.332> 289 83<359.67 581.385>
LayerCount: 2
Fore
SplineSet
192 151 m 1
 252 202 l 0
 287 153 296 141 374 162 c 1
 320 64 l 0
 260 10 192 151 192 151 c 1
183 532 m 0
 183 469 213 404 236 404 c 0
 259 404 288 467 288 530 c 0
 288 593 257 652 234 652 c 0
 211 652 183 595 183 532 c 0
14 490 m 0
 14 651 93 735 192 735 c 0
 291 735 374 625 374 464 c 0
 374 303 291 151 192 151 c 0
 93 151 14 329 14 490 c 0
EndSplineSet
Validated: 37
EndChar

StartChar: r
Encoding: 114 114 66
Width: 372
Flags: W
HStem: 644 68<136 257.989>
LayerCount: 2
Fore
SplineSet
152.349609375 472.139648438 m 5
 192.650390625 480.219726562 214.279296875 475.389648438 234.25 528.700195312 c 4
 259.599609375 596.370117188 236.200195312 606.469726562 226.450195312 620.610351562 c 5
 162.099609375 621.620117188 l 5
 152.349609375 472.139648438 l 5
22 48 m 25
 73 712 l 1
 269 712 l 17
 309 702 333 678 345 642 c 24
 361 594 353 560 335 514 c 24
 321 477 294 469 267 440 c 25
 315 396 l 1
 336 142 l 25
 252 106 l 25
 235 320 l 1
 193 376 l 1
 176 86 l 25
 22 48 l 25
EndSplineSet
Validated: 33
EndChar

StartChar: s
Encoding: 115 115 67
Width: 436
Flags: W
LayerCount: 2
Fore
SplineSet
41 501 m 0
 1.375 548.55078125 8.0634765625 631.143554688 63 685 c 0
 168.001953125 787.9375 380.540039062 721.489257812 422 662 c 0
 345 524 l 1
 273.319335938 558.92578125 165.846679688 579.775390625 191 491 c 0
 213.094726562 413.020507812 316 275 363 209 c 1
 396 128 330.376953125 34.935546875 249 39 c 0
 111.157226562 45.8857421875 46 142 46 142 c 1
 105 201 l 1
 105 201 351 -8 149 340 c 0
 41 501 l 0
EndSplineSet
Validated: 33
EndChar

StartChar: t
Encoding: 116 116 68
Width: 450
Flags: W
VStem: 181 96<86 532> 182 102<86 532>
LayerCount: 2
Fore
SplineSet
182 86 m 25x40
 284 18 l 25x40
 277 564 l 1
 385 606 l 25
 443 714 l 25
 11 706 l 25
 77 512 l 25
 181 532 l 1x80
 182 86 l 25x40
EndSplineSet
Validated: 9
EndChar

StartChar: u
Encoding: 117 117 69
Width: 390
Flags: W
VStem: 327 48<594.462 706>
LayerCount: 2
Fore
SplineSet
11 632 m 1
 139 706 l 1
 188 272 l 17
 230 54 292 138 301 270 c 0
 327 714 l 9
 375 706 l 1
 374 228 l 1
 374 228 354 -8 228 24 c 0
 50.2705078125 69.1376953125 11 632 11 632 c 1
EndSplineSet
Validated: 33
EndChar

StartChar: v
Encoding: 118 118 70
Width: 460
Flags: W
HStem: 37 21G<241.481 285.686>
LayerCount: 2
Fore
SplineSet
280 37 m 25
 176 91 l 1
 10 639 l 25
 212 689 l 1
 242 295 l 25
 424 651 l 1
 450 635 l 1
 280 37 l 25
EndSplineSet
Validated: 1
EndChar

StartChar: w
Encoding: 119 119 71
Width: 578
Flags: W
LayerCount: 2
Fore
SplineSet
165 35 m 25
 283 345 l 25
 377 67 l 1
 441 75 l 25
 563 611 l 1
 445 665 l 25
 373 353 l 1
 279 679 l 1
 207 441 l 25
 155 685 l 1
 11 611 l 25
 165 35 l 25
EndSplineSet
Validated: 9
EndChar

StartChar: x
Encoding: 120 120 72
Width: 384
Flags: W
HStem: 685 20G<84.4444 155.176>
LayerCount: 2
Fore
SplineSet
170 31 m 1
 16 73 l 25
 126 373 l 1
 32 669 l 1
 150 705 l 1
 194 535 l 1
 278 657 l 1
 330 633 l 25
 242 369 l 1
 370 153 l 1
 276 77 l 1
 206 265 l 1
 170 31 l 1
EndSplineSet
Validated: 1
EndChar

StartChar: y
Encoding: 121 121 73
Width: 466
Flags: W
LayerCount: 2
Fore
SplineSet
179 41 m 1
 307 41 l 1
 309 291 l 1
 445 637 l 1
 357 705 l 25
 261 383 l 1
 149 765 l 25
 15 659 l 25
 177 237 l 1
 179 41 l 1
EndSplineSet
Validated: 9
EndChar

StartChar: z
Encoding: 122 122 74
Width: 494
Flags: W
HStem: 678 20G<13.0968 277.667>
LayerCount: 2
Fore
SplineSet
37 450 m 25
 11 698 l 1
 411 668 l 25
 227 318 l 1
 487 322 l 1
 421 54 l 25
 73 116 l 1
 229 478 l 1
 37 450 l 25
EndSplineSet
Validated: 1
EndChar

StartChar: bracketleft
Encoding: 91 91 75
Width: 450
Flags: W
HStem: 32 48<277.125 411.583> 680 54<95 267.4> 686 58<134.6 367>
VStem: 35 60<248.8 680> 43 62<64 495.2>
LayerCount: 2
Fore
SplineSet
43 28 m 25xc8
 35 734 l 25xd0
 367 744 l 25
 369 686 l 25xb0
 95 680 l 25xd0
 105 64 l 25
 411 80 l 25
 415 32 l 25
 43 28 l 25xc8
EndSplineSet
Validated: 1
EndChar

StartChar: plus
Encoding: 43 43 77
Width: 378
Flags: W
HStem: 344 44<11 167 209 355>
VStem: 167 38<388 560> 175 36<208 344>
LayerCount: 2
Fore
SplineSet
11 350 m 25xa0
 11 388 l 25
 167 388 l 25
 163 560 l 25
 205 562 l 25
 205 386 l 25xc0
 357 388 l 25
 355 344 l 25
 209 346 l 25
 211 208 l 25
 175 206 l 25
 173 344 l 25
 11 350 l 25xa0
EndSplineSet
Validated: 1
EndChar

StartChar: hyphen
Encoding: 45 45 78
Width: 402
Flags: W
LayerCount: 2
Fore
SplineSet
33 320 m 5
 387 348 l 5
 383 392 l 5
 13 370 l 5
 33 320 l 5
EndSplineSet
Validated: 9
EndChar

StartChar: asterisk
Encoding: 42 42 79
Width: 330
Flags: W
HStem: 300 280
VStem: 141 54<464 580>
LayerCount: 2
Fore
SplineSet
119 408 m 25
 21 478 l 25
 51 528 l 25
 141 464 l 25
 139 580 l 25
 197 580 l 25
 195 464 l 25
 279 524 l 25
 305 482 l 25
 217 404 l 25
 267 324 l 25
 229 300 l 25
 167 394 l 25
 121 304 l 25
 81 332 l 25
 119 408 l 25
EndSplineSet
Validated: 1
EndChar

StartChar: grave
Encoding: 96 96 80
Width: 460
Flags: W
LayerCount: 2
Fore
SplineSet
134 770 m 5
 162 682 l 5
 244 682 l 5
 306 636 l 5
 380 654 l 5
 278 744 l 5
 134 770 l 5
EndSplineSet
Validated: 9
EndChar

StartChar: underscore
Encoding: 95 95 81
Width: 402
Flags: W
LayerCount: 2
Fore
SplineSet
35 18 m 5
 389 46 l 5
 385 90 l 5
 15 68 l 5
 35 18 l 5
EndSplineSet
Validated: 9
EndChar

StartChar: questiondown
Encoding: 191 191 82
Width: 334
Flags: W
VStem: 117 60<428.5 495>
LayerCount: 2
Fore
SplineSet
208.692382812 654.538085938 m 0
 221 625 204.231445312 589.845703125 171 576 c 0
 137.76953125 562.153320312 101 575 88.6923828125 604.538085938 c 0
 76.384765625 634.077148438 93.154296875 669.23046875 126.384765625 683.077148438 c 0
 159.615234375 696.922851562 196.384765625 684.077148438 208.692382812 654.538085938 c 0
323 79 m 0
 245 157 l 1
 227 128 190.583007812 88.21875 137 126 c 0
 78.4921875 167.25390625 140 216 186 240 c 0
 177 510 l 1
 117 495 l 1
 91 248 l 1
 8 219 -10.6435546875 100.143554688 53 53 c 0
 161 -27 216 15 323 79 c 0
EndSplineSet
Validated: 41
EndChar

StartChar: exclamdown
Encoding: 161 161 83
Width: 196
Flags: W
LayerCount: 2
Fore
SplineSet
137 517 m 5
 73 479 l 5
 11 67 l 5
 175 9 l 5
 137 517 l 5
51.3076171875 655.538085938 m 4
 39 626 55.7685546875 590.845703125 89 577 c 4
 122.23046875 563.153320312 159 576 171.307617188 605.538085938 c 4
 183.615234375 635.077148438 166.845703125 670.23046875 133.615234375 684.077148438 c 4
 100.384765625 697.922851562 63.615234375 685.077148438 51.3076171875 655.538085938 c 4
EndSplineSet
Validated: 41
EndChar

StartChar: equal
Encoding: 61 61 84
Width: 402
Flags: W
LayerCount: 2
Fore
SplineSet
33 320 m 1
 387 348 l 1
 383 392 l 1
 13 370 l 1
 33 320 l 1
36 227 m 1
 390 255 l 1
 386 299 l 1
 16 277 l 1
 36 227 l 1
EndSplineSet
Validated: 9
EndChar

StartChar: oslash
Encoding: 248 248 85
Width: 698
Flags: W
HStem: 0 254<330.478 442.891> 666 118<261.5 462.789> 742 20G<633.451 662.538>
LayerCount: 2
Fore
SplineSet
316 460 m 0xc0
 316 346 372 254 440 254 c 0
 508 254 564 346 564 460 c 0
 564 574 508 666 440 666 c 0
 372 666 316 574 316 460 c 0xc0
105 399 m 0
 94.0703125 562.940429688 170 726 340 746 c 0
 507.842773438 765.74609375 636 674 616 398 c 0
 600.388671875 182.564453125 515 0 346 0 c 0
 228 0 116 234 105 399 c 0
21 44 m 25
 651 762 l 25xa0
 681 710 l 25
 101 -42 l 25
 21 44 l 25
EndSplineSet
Validated: 37
EndChar

StartChar: bracketright
Encoding: 93 93 86
Width: 450
Flags: W
HStem: 32 48<36.4167 170.875> 680 54<180.6 353> 686 58<81 313.4>
VStem: 343 62<64 495.2> 353 60<248.8 680>
LayerCount: 2
Fore
SplineSet
405 28 m 25xd0
 413 734 l 25xc8
 81 744 l 25
 79 686 l 25xa8
 353 680 l 25xc8
 343 64 l 25
 37 80 l 25
 33 32 l 25
 405 28 l 25xd0
EndSplineSet
Validated: 9
EndChar

StartChar: braceleft
Encoding: 123 123 87
Width: 450
Flags: W
HStem: 32 48<277.125 411.583> 680 54<95 267.4> 686 58<134.6 367>
VStem: 35 60<248.8 680> 43 62<64 495.2>
LayerCount: 2
Fore
SplineSet
43 28 m 25xc8
 35 734 l 25xd0
 367 744 l 25
 369 686 l 25xb0
 95 680 l 25xd0
 105 64 l 25
 411 80 l 25
 415 32 l 25
 43 28 l 25xc8
EndSplineSet
Validated: 1
EndChar

StartChar: braceright
Encoding: 125 125 88
Width: 450
Flags: W
HStem: 32 48<36.4167 170.875> 680 54<180.6 353> 686 58<81 313.4>
VStem: 343 62<64 495.2> 353 60<248.8 680>
LayerCount: 2
Fore
SplineSet
405 28 m 25xd0
 413 734 l 25xc8
 81 744 l 25
 79 686 l 25xa8
 353 680 l 25xc8
 343 64 l 25
 37 80 l 25
 33 32 l 25
 405 28 l 25xd0
EndSplineSet
Validated: 9
EndChar

StartChar: Egrave
Encoding: 200 200 89
Width: 434
Flags: W
LayerCount: 2
Fore
SplineSet
121 762 m 5
 149 674 l 5
 231 674 l 5
 293 628 l 5
 367 646 l 5
 265 736 l 5
 121 762 l 5
11 568 m 1
 353 618 l 1
 356 516 l 25
 124 454 l 1
 168 320 l 1
 278 336 l 25
 296 212 l 25
 208 182 l 1
 214 122 l 1
 424 130 l 1
 422 -92 l 25
 70 -54 l 25
 11 568 l 1
EndSplineSet
Validated: 9
EndChar

StartChar: Eacute
Encoding: 201 201 90
Width: 434
Flags: W
LayerCount: 2
Fore
SplineSet
340 770 m 1
 312 682 l 1
 230 682 l 1
 168 636 l 1
 94 654 l 1
 196 744 l 1
 340 770 l 1
11 568 m 1
 353 618 l 1
 356 516 l 25
 124 454 l 1
 168 320 l 1
 278 336 l 25
 296 212 l 25
 208 182 l 1
 214 122 l 1
 424 130 l 1
 422 -92 l 25
 70 -54 l 25
 11 568 l 1
EndSplineSet
Validated: 1
EndChar

StartChar: Ecircumflex
Encoding: 202 202 91
Width: 434
Flags: W
HStem: 692 20G<208.616 252.211>
LayerCount: 2
Fore
SplineSet
120 674 m 1
 144 639 l 1
 233 712 l 1
 306 636 l 1
 346 676 l 1
 232 750 l 1
 120 674 l 1
11 568 m 1
 353 618 l 1
 356 516 l 25
 124 454 l 1
 168 320 l 1
 278 336 l 25
 296 212 l 25
 208 182 l 1
 214 122 l 1
 424 130 l 1
 422 -92 l 25
 70 -54 l 25
 11 568 l 1
EndSplineSet
Validated: 9
EndChar

StartChar: Edieresis
Encoding: 203 203 92
Width: 434
Flags: W
LayerCount: 2
Fore
SplineSet
354.421875 641.790039062 m 4
 331.8203125 632.341796875 305.680664062 646.934570312 296.026367188 674.581054688 c 4
 286.373046875 702.2265625 296.959960938 732.173828125 319.560546875 741.623046875 c 4
 342.162109375 751.071289062 368.301757812 736.4765625 377.956054688 708.83203125 c 4
 387.609375 681.186523438 377.022460938 651.23828125 354.421875 641.790039062 c 4
151 654 m 4
 130.97265625 646.232421875 107.763671875 658.340820312 99.154296875 681.208007812 c 4
 90.54296875 704.075195312 99.8798828125 728.807617188 119.90625 736.575195312 c 4
 139.934570312 744.34375 163.142578125 732.233398438 171.752929688 709.3671875 c 4
 180.36328125 686.5 171.028320312 661.767578125 151 654 c 4
11 568 m 1
 353 618 l 1
 356 516 l 25
 124 454 l 1
 168 320 l 1
 278 336 l 25
 296 212 l 25
 208 182 l 1
 214 122 l 1
 424 130 l 1
 422 -92 l 25
 70 -54 l 25
 11 568 l 1
EndSplineSet
Validated: 33
EndChar

StartChar: egrave
Encoding: 232 232 93
Width: 434
Flags: W
LayerCount: 2
Fore
SplineSet
121 762 m 5
 149 674 l 5
 231 674 l 5
 293 628 l 5
 367 646 l 5
 265 736 l 5
 121 762 l 5
11 568 m 1
 353 618 l 1
 356 516 l 25
 124 454 l 1
 168 320 l 1
 278 336 l 25
 296 212 l 25
 208 182 l 1
 214 122 l 1
 424 130 l 1
 422 -92 l 25
 70 -54 l 25
 11 568 l 1
EndSplineSet
Validated: 9
EndChar

StartChar: eacute
Encoding: 233 233 94
Width: 434
Flags: W
LayerCount: 2
Fore
SplineSet
340 770 m 1
 312 682 l 1
 230 682 l 1
 168 636 l 1
 94 654 l 1
 196 744 l 1
 340 770 l 1
11 568 m 1
 353 618 l 1
 356 516 l 25
 124 454 l 1
 168 320 l 1
 278 336 l 25
 296 212 l 25
 208 182 l 1
 214 122 l 1
 424 130 l 1
 422 -92 l 25
 70 -54 l 25
 11 568 l 1
EndSplineSet
Validated: 1
EndChar

StartChar: ecircumflex
Encoding: 234 234 95
Width: 434
Flags: W
HStem: 692 20G<208.616 252.211>
LayerCount: 2
Fore
SplineSet
120 674 m 1
 144 639 l 1
 233 712 l 1
 306 636 l 1
 346 676 l 1
 232 750 l 1
 120 674 l 1
11 568 m 1
 353 618 l 1
 356 516 l 25
 124 454 l 1
 168 320 l 1
 278 336 l 25
 296 212 l 25
 208 182 l 1
 214 122 l 1
 424 130 l 1
 422 -92 l 25
 70 -54 l 25
 11 568 l 1
EndSplineSet
Validated: 9
EndChar

StartChar: edieresis
Encoding: 235 235 96
Width: 434
Flags: W
HStem: 710 20G<216.2 353.588>
LayerCount: 2
Fore
SplineSet
354.421875 641.790039062 m 4
 331.8203125 632.341796875 305.680664062 646.934570312 296.026367188 674.581054688 c 4
 286.373046875 702.2265625 296.959960938 732.173828125 319.560546875 741.623046875 c 4
 342.162109375 751.071289062 368.301757812 736.4765625 377.956054688 708.83203125 c 4
 387.609375 681.186523438 377.022460938 651.23828125 354.421875 641.790039062 c 4
151 654 m 4
 130.97265625 646.232421875 107.763671875 658.340820312 99.154296875 681.208007812 c 4
 90.54296875 704.075195312 99.8798828125 728.807617188 119.90625 736.575195312 c 4
 139.934570312 744.34375 163.142578125 732.233398438 171.752929688 709.3671875 c 4
 180.36328125 686.5 171.028320312 661.767578125 151 654 c 4
11 568 m 1
 353 618 l 1
 356 516 l 25
 124 454 l 1
 168 320 l 1
 278 336 l 25
 296 212 l 25
 208 182 l 1
 214 122 l 1
 424 130 l 1
 422 -92 l 25
 70 -54 l 25
 11 568 l 1
EndSplineSet
Validated: 33
EndChar

StartChar: Ograve
Encoding: 210 210 97
Width: 546
Flags: W
HStem: -116 254<198 385>
LayerCount: 2
Fore
SplineSet
181 786 m 5
 209 698 l 5
 291 698 l 5
 353 652 l 5
 427 670 l 5
 325 760 l 5
 181 786 l 5
227 344 m 0
 227 230 283 138 351 138 c 0
 419 138 475 230 475 344 c 0
 475 458 419 550 351 550 c 0
 283 550 227 458 227 344 c 0
16 283 m 0
 5.0703125 446.940429688 81 610 251 630 c 0
 418.842773438 649.74609375 547 558 527 282 c 0
 511.388671875 66.564453125 426 -116 257 -116 c 0
 139 -116 27 118 16 283 c 0
EndSplineSet
Validated: 41
EndChar

StartChar: Oacute
Encoding: 211 211 98
Width: 546
Flags: W
HStem: -116 254<198 385> 700 76<314.333 361>
LayerCount: 2
Fore
SplineSet
151 654 m 1
 229 654 l 1
 281 688 l 1
 361 700 l 1
 409 776 l 1
 257 770 l 5
 151 654 l 1
227 344 m 0
 227 230 283 138 351 138 c 0
 419 138 475 230 475 344 c 0
 475 458 419 550 351 550 c 0
 283 550 227 458 227 344 c 0
16 283 m 0
 5.0703125 446.940429688 81 610 251 630 c 0
 418.842773438 649.74609375 547 558 527 282 c 0
 511.388671875 66.564453125 426 -116 257 -116 c 0
 139 -116 27 118 16 283 c 0
EndSplineSet
Validated: 41
EndChar

StartChar: Ocircumflex
Encoding: 212 212 99
Width: 546
Flags: W
HStem: -116 254<198 385> 704 20G<273.286 308.222>
LayerCount: 2
Fore
SplineSet
151 654 m 25
 229 654 l 25
 291 724 l 25
 353 652 l 25
 427 670 l 25
 287 780 l 25
 151 654 l 25
227 344 m 0
 227 230 283 138 351 138 c 0
 419 138 475 230 475 344 c 0
 475 458 419 550 351 550 c 0
 283 550 227 458 227 344 c 0
16 283 m 0
 5.0703125 446.940429688 81 610 251 630 c 0
 418.842773438 649.74609375 547 558 527 282 c 0
 511.388671875 66.564453125 426 -116 257 -116 c 0
 139 -116 27 118 16 283 c 0
EndSplineSet
Validated: 41
EndChar

StartChar: Otilde
Encoding: 213 213 100
Width: 546
Flags: W
HStem: -116 254<198 385>
LayerCount: 2
Fore
SplineSet
143.165039062 754.741210938 m 1
 241.1484375 802.7109375 257.165039062 773.928710938 308.983398438 752 c 0
 364.991210938 728.296875 404.017578125 709.591796875 439 752 c 0
 440.884765625 672.505859375 l 1
 396.603515625 643.724609375 357.541015625 640.708007812 308.983398438 667.024414062 c 0
 260.93359375 693.065429688 243.975585938 731.440429688 143.165039062 675.247070312 c 0
 143.165039062 754.741210938 l 1
227 344 m 0
 227 230 283 138 351 138 c 0
 419 138 475 230 475 344 c 0
 475 458 419 550 351 550 c 0
 283 550 227 458 227 344 c 0
16 283 m 0
 5.0703125 446.940429688 81 610 251 630 c 0
 418.842773438 649.74609375 547 558 527 282 c 0
 511.388671875 66.564453125 426 -116 257 -116 c 0
 139 -116 27 118 16 283 c 0
EndSplineSet
Validated: 33
EndChar

StartChar: Odieresis
Encoding: 214 214 101
Width: 546
Flags: W
HStem: -116 254<198 385>
LayerCount: 2
Fore
SplineSet
417.465820312 669.958007812 m 4
 394.864257812 660.509765625 368.724609375 675.102539062 359.0703125 702.749023438 c 4
 349.416992188 730.39453125 360.00390625 760.341796875 382.604492188 769.791015625 c 4
 405.206054688 779.239257812 431.345703125 764.64453125 441 737 c 4
 450.653320312 709.354492188 440.06640625 679.40625 417.465820312 669.958007812 c 4
214.043945312 682.16796875 m 4
 194.016601562 674.400390625 170.807617188 686.508789062 162.198242188 709.375976562 c 4
 153.586914062 732.243164062 162.923828125 756.975585938 182.950195312 764.743164062 c 4
 202.978515625 772.51171875 226.186523438 760.401367188 234.796875 737.53515625 c 4
 243.407226562 714.66796875 234.072265625 689.935546875 214.043945312 682.16796875 c 4
227 344 m 0
 227 230 283 138 351 138 c 0
 419 138 475 230 475 344 c 0
 475 458 419 550 351 550 c 0
 283 550 227 458 227 344 c 0
16 283 m 0
 5.0703125 446.940429688 81 610 251 630 c 0
 418.842773438 649.74609375 547 558 527 282 c 0
 511.388671875 66.564453125 426 -116 257 -116 c 0
 139 -116 27 118 16 283 c 0
EndSplineSet
Validated: 33
EndChar

StartChar: ograve
Encoding: 242 242 102
Width: 546
Flags: W
HStem: -116 254<198 385>
LayerCount: 2
Fore
SplineSet
181 786 m 1
 209 698 l 5
 291 698 l 1
 353 652 l 1
 427 670 l 1
 325 760 l 1
 181 786 l 1
227 344 m 0
 227 230 283 138 351 138 c 0
 419 138 475 230 475 344 c 0
 475 458 419 550 351 550 c 0
 283 550 227 458 227 344 c 0
16 283 m 0
 5.0703125 446.940429688 81 610 251 630 c 0
 418.842773438 649.74609375 547 558 527 282 c 0
 511.388671875 66.564453125 426 -116 257 -116 c 0
 139 -116 27 118 16 283 c 0
EndSplineSet
Validated: 41
EndChar

StartChar: oacute
Encoding: 243 243 103
Width: 546
Flags: W
HStem: -116 254<198 385> 700 76<314.333 361>
LayerCount: 2
Fore
SplineSet
151 654 m 1
 229 654 l 1
 281 688 l 1
 361 700 l 1
 409 776 l 1
 257 770 l 5
 151 654 l 1
227 344 m 0
 227 230 283 138 351 138 c 0
 419 138 475 230 475 344 c 0
 475 458 419 550 351 550 c 0
 283 550 227 458 227 344 c 0
16 283 m 0
 5.0703125 446.940429688 81 610 251 630 c 0
 418.842773438 649.74609375 547 558 527 282 c 0
 511.388671875 66.564453125 426 -116 257 -116 c 0
 139 -116 27 118 16 283 c 0
EndSplineSet
Validated: 41
EndChar

StartChar: ocircumflex
Encoding: 244 244 104
Width: 546
Flags: W
HStem: -116 254<198 385> 704 20G<273.286 308.222>
LayerCount: 2
Fore
SplineSet
151 654 m 25
 229 654 l 25
 291 724 l 25
 353 652 l 25
 427 670 l 25
 287 780 l 25
 151 654 l 25
227 344 m 0
 227 230 283 138 351 138 c 0
 419 138 475 230 475 344 c 0
 475 458 419 550 351 550 c 0
 283 550 227 458 227 344 c 0
16 283 m 0
 5.0703125 446.940429688 81 610 251 630 c 0
 418.842773438 649.74609375 547 558 527 282 c 0
 511.388671875 66.564453125 426 -116 257 -116 c 0
 139 -116 27 118 16 283 c 0
EndSplineSet
Validated: 41
EndChar

StartChar: otilde
Encoding: 245 245 105
Width: 546
Flags: W
HStem: -116 254<198 385>
LayerCount: 2
Fore
SplineSet
143.165039062 754.741210938 m 1
 241.1484375 802.7109375 257.165039062 773.928710938 308.983398438 752 c 0
 364.991210938 728.296875 404.017578125 709.591796875 439 752 c 0
 440.884765625 672.505859375 l 1
 396.603515625 643.724609375 357.541015625 640.708007812 308.983398438 667.024414062 c 0
 260.93359375 693.065429688 243.975585938 731.440429688 143.165039062 675.247070312 c 0
 143.165039062 754.741210938 l 1
227 344 m 0
 227 230 283 138 351 138 c 0
 419 138 475 230 475 344 c 0
 475 458 419 550 351 550 c 0
 283 550 227 458 227 344 c 0
16 283 m 0
 5.0703125 446.940429688 81 610 251 630 c 0
 418.842773438 649.74609375 547 558 527 282 c 0
 511.388671875 66.564453125 426 -116 257 -116 c 0
 139 -116 27 118 16 283 c 0
EndSplineSet
Validated: 33
EndChar

StartChar: odieresis
Encoding: 246 246 106
Width: 546
Flags: W
HStem: -116 254<198 385>
LayerCount: 2
Fore
SplineSet
417.465820312 669.958007812 m 0
 394.864257812 660.509765625 368.724609375 675.102539062 359.0703125 702.749023438 c 0
 349.416992188 730.39453125 360.00390625 760.341796875 382.604492188 769.791015625 c 0
 405.206054688 779.239257812 431.345703125 764.64453125 441 737 c 0
 450.653320312 709.354492188 440.06640625 679.40625 417.465820312 669.958007812 c 0
214.043945312 682.16796875 m 0
 194.016601562 674.400390625 170.807617188 686.508789062 162.198242188 709.375976562 c 0
 153.586914062 732.243164062 162.923828125 756.975585938 182.950195312 764.743164062 c 0
 202.978515625 772.51171875 226.186523438 760.401367188 234.796875 737.53515625 c 0
 243.407226562 714.66796875 234.072265625 689.935546875 214.043945312 682.16796875 c 0
227 344 m 0
 227 230 283 138 351 138 c 0
 419 138 475 230 475 344 c 0
 475 458 419 550 351 550 c 0
 283 550 227 458 227 344 c 0
16 283 m 0
 5.0703125 446.940429688 81 610 251 630 c 0
 418.842773438 649.74609375 547 558 527 282 c 0
 511.388671875 66.564453125 426 -116 257 -116 c 0
 139 -116 27 118 16 283 c 0
EndSplineSet
Validated: 33
EndChar

StartChar: uni00B2
Encoding: 178 178 107
Width: 262
Flags: W
HStem: 395.03 82.125<151.828 226.601> 732 20G<22 23.2786>
LayerCount: 2
Fore
SplineSet
29.7001953125 631.549804688 m 0
 22 752 l 1
 22 752 200.200195312 822.080078125 234.30078125 693.96484375 c 0
 254.84375 616.783203125 214.5 582.275390625 151.80078125 474.96484375 c 0
 151.80078125 474.96484375 188.650390625 476.607421875 226.600585938 477.155273438 c 9
 226.600585938 395.030273438 l 25
 57.2001953125 396.125 l 1
 107.80078125 447.58984375 160.600585938 507.815429688 151.80078125 583.370117188 c 24
 145.75 633.740234375 121 690.6796875 29.7001953125 631.549804688 c 0
EndSplineSet
Validated: 33
EndChar

StartChar: uni00B3
Encoding: 179 179 108
Width: 237
Flags: W
LayerCount: 2
Fore
SplineSet
202.220703125 731.147460938 m 0
 140.3359375 827.204101562 10 747 10 747 c 1
 17.9150390625 622.4453125 l 0
 111.763671875 683.58984375 129.85546875 643.959960938 129.85546875 643.959960938 c 0
 162.645507812 600.931640625 63.1435546875 508.08203125 63.1435546875 508.08203125 c 0
 212.397460938 521.669921875 149.413085938 439.981445312 22.4375 454.86328125 c 1
 25.830078125 399.379882812 l 0
 36.0068359375 374.469726562 115.15625 373.336914062 115.15625 373.336914062 c 1
 216.919921875 390.322265625 253.66796875 447.502929688 205.047851562 541.485351562 c 0
 205.047851562 541.485351562 185.825195312 561.8671875 156.426757812 553.940429688 c 1
 199.39453125 598.100585938 234.40234375 681.194335938 202.220703125 731.147460938 c 0
EndSplineSet
Validated: 41
EndChar

StartChar: acute
Encoding: 180 180 109
Width: 210
Flags: W
HStem: 666 20G<164.289 180.5>
LayerCount: 2
Fore
SplineSet
172 686 m 1
 189 639 195 609 118 505 c 0
 95.015625 473.956054688 145 558 140 603 c 0
 172 686 l 1
28.3916015625 627.448242188 m 0
 13.5 660.751953125 33.7890625 700.388671875 74 716 c 0
 114.208007812 731.612304688 158.700195312 717.126953125 173.591796875 683.823242188 c 0
 188.484375 650.517578125 168.192382812 610.881835938 127.984375 595.270507812 c 0
 87.775390625 579.659179688 43.2841796875 594.142578125 28.3916015625 627.448242188 c 0
EndSplineSet
Validated: 37
EndChar

StartChar: Agrave
Encoding: 192 192 110
Width: 390
Flags: W
LayerCount: 2
Fore
SplineSet
118 291 m 29
 165 433 l 5
 211 293 l 5
 118 291 l 29
18 -33 m 5
 192 -63 l 29
 191 157 l 5
 245 89 l 5
 262 -65 l 29
 374 -21 l 5
 254 615 l 5
 122 615 l 5
 18 -33 l 5
EndSplineSet
Validated: 9
EndChar

StartChar: Aacute
Encoding: 193 193 111
Width: 390
Flags: W
LayerCount: 2
Fore
SplineSet
134 770 m 5
 162 682 l 5
 244 682 l 5
 306 636 l 5
 380 654 l 5
 278 744 l 5
 134 770 l 5
118 291 m 25
 165 433 l 1
 211 293 l 1
 118 291 l 25
18 -33 m 1
 192 -63 l 25
 191 157 l 1
 245 89 l 1
 262 -65 l 25
 374 -21 l 1
 254 615 l 1
 122 615 l 1
 18 -33 l 1
EndSplineSet
Validated: 9
EndChar

StartChar: Acircumflex
Encoding: 194 194 112
Width: 390
Flags: W
LayerCount: 2
Fore
SplineSet
346 770 m 5
 318 682 l 5
 236 682 l 5
 174 636 l 5
 100 654 l 5
 202 744 l 5
 346 770 l 5
118 291 m 25
 165 433 l 1
 211 293 l 1
 118 291 l 25
18 -33 m 1
 192 -63 l 25
 191 157 l 1
 245 89 l 1
 262 -65 l 25
 374 -21 l 1
 254 615 l 1
 122 615 l 1
 18 -33 l 1
EndSplineSet
Validated: 9
EndChar

StartChar: Atilde
Encoding: 195 195 113
Width: 390
Flags: W
HStem: 700 20G<169.892 218.247>
LayerCount: 2
Fore
SplineSet
58 704 m 1
 94 646 l 1
 198 720 l 1
 280 639 l 1
 304 678 l 1
 190 755 l 1
 58 704 l 1
118 291 m 25
 165 433 l 1
 211 293 l 1
 118 291 l 25
18 -33 m 1
 192 -63 l 25
 191 157 l 1
 245 89 l 1
 262 -65 l 25
 374 -21 l 1
 254 615 l 1
 122 615 l 1
 18 -33 l 1
EndSplineSet
Validated: 9
EndChar

StartChar: Adieresis
Encoding: 196 196 114
Width: 390
Flags: W
LayerCount: 2
Fore
SplineSet
283.465820312 669.958007812 m 4
 260.864257812 660.509765625 234.724609375 675.102539062 225.0703125 702.749023438 c 4
 215.416992188 730.39453125 226.00390625 760.341796875 248.604492188 769.791015625 c 4
 271.206054688 779.239257812 297.345703125 764.64453125 307 737 c 4
 316.653320312 709.354492188 306.06640625 679.40625 283.465820312 669.958007812 c 4
80.0439453125 682.16796875 m 4
 60.0166015625 674.400390625 36.8076171875 686.508789062 28.1982421875 709.375976562 c 4
 19.5869140625 732.243164062 28.923828125 756.975585938 48.9501953125 764.743164062 c 4
 68.978515625 772.51171875 92.1865234375 760.401367188 100.796875 737.53515625 c 4
 109.407226562 714.66796875 100.072265625 689.935546875 80.0439453125 682.16796875 c 4
118 291 m 25
 165 433 l 1
 211 293 l 1
 118 291 l 25
18 -33 m 1
 192 -63 l 25
 191 157 l 1
 245 89 l 1
 262 -65 l 25
 374 -21 l 1
 254 615 l 1
 122 615 l 1
 18 -33 l 1
EndSplineSet
Validated: 41
EndChar

StartChar: Aring
Encoding: 197 197 115
Width: 392
Flags: W
LayerCount: 2
Fore
SplineSet
118 291 m 25
 165 433 l 1
 211 293 l 1
 118 291 l 25
18 -33 m 1
 192 -63 l 25
 191 157 l 1
 245 89 l 1
 262 -65 l 25
 374 -21 l 1
 254 615 l 1
 122 615 l 1
 18 -33 l 1
146.48828125 683.234375 m 4
 154.919921875 663.590820312 180.106445312 655.048828125 202.869140625 664.255859375 c 4
 225.6328125 673.463867188 237.119140625 696.840820312 228.688476562 716.484375 c 4
 220.2578125 736.126953125 195.071289062 744.669921875 172.307617188 735.461914062 c 4
 149.544921875 726.254882812 138.057617188 702.876953125 146.48828125 683.234375 c 4
126.307617188 675.461914062 m 4
 114 705 130.768554688 740.154296875 164 754 c 4
 197.23046875 767.846679688 234 755 246.307617188 725.461914062 c 4
 258.615234375 695.922851562 241.845703125 660.76953125 208.615234375 646.922851562 c 4
 175.384765625 633.077148438 138.615234375 645.922851562 126.307617188 675.461914062 c 4
EndSplineSet
Validated: 41
EndChar

StartChar: agrave
Encoding: 224 224 116
Width: 390
Flags: W
LayerCount: 2
Fore
SplineSet
118 291 m 29
 165 433 l 5
 211 293 l 5
 118 291 l 29
18 -33 m 5
 192 -63 l 29
 191 157 l 5
 245 89 l 5
 262 -65 l 29
 374 -21 l 5
 254 615 l 5
 122 615 l 5
 18 -33 l 5
EndSplineSet
Validated: 9
EndChar

StartChar: aacute
Encoding: 225 225 117
Width: 390
Flags: W
LayerCount: 2
Fore
SplineSet
134 770 m 5
 162 682 l 5
 244 682 l 5
 306 636 l 5
 380 654 l 5
 278 744 l 5
 134 770 l 5
118 291 m 25
 165 433 l 1
 211 293 l 1
 118 291 l 25
18 -33 m 1
 192 -63 l 25
 191 157 l 1
 245 89 l 1
 262 -65 l 25
 374 -21 l 1
 254 615 l 1
 122 615 l 1
 18 -33 l 1
EndSplineSet
Validated: 9
EndChar

StartChar: acircumflex
Encoding: 226 226 118
Width: 390
Flags: W
LayerCount: 2
Fore
SplineSet
346 770 m 5
 318 682 l 5
 236 682 l 5
 174 636 l 5
 100 654 l 5
 202 744 l 5
 346 770 l 5
118 291 m 25
 165 433 l 1
 211 293 l 1
 118 291 l 25
18 -33 m 1
 192 -63 l 25
 191 157 l 1
 245 89 l 1
 262 -65 l 25
 374 -21 l 1
 254 615 l 1
 122 615 l 1
 18 -33 l 1
EndSplineSet
Validated: 9
EndChar

StartChar: atilde
Encoding: 227 227 119
Width: 390
Flags: W
HStem: 700 20G<169.892 218.247>
LayerCount: 2
Fore
SplineSet
58 704 m 1
 94 646 l 1
 198 720 l 1
 280 639 l 1
 304 678 l 1
 190 755 l 1
 58 704 l 1
118 291 m 25
 165 433 l 1
 211 293 l 1
 118 291 l 25
18 -33 m 1
 192 -63 l 25
 191 157 l 1
 245 89 l 1
 262 -65 l 25
 374 -21 l 1
 254 615 l 1
 122 615 l 1
 18 -33 l 1
EndSplineSet
Validated: 9
EndChar

StartChar: adieresis
Encoding: 228 228 120
Width: 390
Flags: W
LayerCount: 2
Fore
SplineSet
283.465820312 669.958007812 m 4
 260.864257812 660.509765625 234.724609375 675.102539062 225.0703125 702.749023438 c 4
 215.416992188 730.39453125 226.00390625 760.341796875 248.604492188 769.791015625 c 4
 271.206054688 779.239257812 297.345703125 764.64453125 307 737 c 4
 316.653320312 709.354492188 306.06640625 679.40625 283.465820312 669.958007812 c 4
80.0439453125 682.16796875 m 4
 60.0166015625 674.400390625 36.8076171875 686.508789062 28.1982421875 709.375976562 c 4
 19.5869140625 732.243164062 28.923828125 756.975585938 48.9501953125 764.743164062 c 4
 68.978515625 772.51171875 92.1865234375 760.401367188 100.796875 737.53515625 c 4
 109.407226562 714.66796875 100.072265625 689.935546875 80.0439453125 682.16796875 c 4
118 291 m 25
 165 433 l 1
 211 293 l 1
 118 291 l 25
18 -33 m 1
 192 -63 l 25
 191 157 l 1
 245 89 l 1
 262 -65 l 25
 374 -21 l 1
 254 615 l 1
 122 615 l 1
 18 -33 l 1
EndSplineSet
Validated: 41
EndChar

StartChar: Igrave
Encoding: 204 204 121
Width: 460
Flags: W
VStem: 153 160<185.75 436> 155 150<158 400.25>
LayerCount: 2
Fore
SplineSet
134 770 m 5x00
 162 682 l 5
 244 682 l 5
 306 636 l 5
 380 654 l 5
 278 744 l 5
 134 770 l 5x00
426 -86 m 25
 16 -40 l 25
 21 154 l 1
 155 158 l 25x40
 153 464 l 25
 57 462 l 25
 53 564 l 1
 453 642 l 25
 455 460 l 1
 313 436 l 25x80
 305 150 l 25x40
 439 154 l 1
 426 -86 l 25
EndSplineSet
Validated: 9
EndChar

StartChar: Iacute
Encoding: 205 205 122
Width: 460
Flags: W
VStem: 153 160<185.75 436> 155 150<158 400.25>
LayerCount: 2
Fore
SplineSet
424 776 m 5x00
 396 688 l 5
 314 688 l 5
 252 642 l 5
 178 660 l 5
 280 750 l 5
 424 776 l 5x00
426 -86 m 25
 16 -40 l 25
 21 154 l 1
 155 158 l 25x40
 153 464 l 25
 57 462 l 25
 53 564 l 1
 453 642 l 25
 455 460 l 1
 313 436 l 25x80
 305 150 l 25x40
 439 154 l 1
 426 -86 l 25
EndSplineSet
Validated: 1
EndChar

StartChar: Icircumflex
Encoding: 206 206 123
Width: 460
Flags: W
HStem: 690 20G<218.488 256.378> 690 20G<218.488 256.378>
VStem: 153 160<185.75 436> 155 150<158 400.25>
LayerCount: 2
Fore
SplineSet
110 664 m 1x80
 158 628 l 1
 238 710 l 1
 306 636 l 1
 380 654 l 1
 242 758 l 1
 110 664 l 1x80
426 -86 m 25
 16 -40 l 25
 21 154 l 1
 155 158 l 25x10
 153 464 l 25
 57 462 l 25
 53 564 l 1
 453 642 l 25
 455 460 l 1
 313 436 l 25x20
 305 150 l 25x10
 439 154 l 1
 426 -86 l 25
EndSplineSet
Validated: 9
EndChar

StartChar: Idieresis
Encoding: 207 207 124
Width: 460
Flags: W
VStem: 153 160<185.75 436> 155 150<158 400.25>
LayerCount: 2
Fore
SplineSet
365.421875 654.790039062 m 0x00
 342.8203125 645.341796875 316.680664062 659.934570312 307.026367188 687.581054688 c 0
 297.373046875 715.2265625 307.959960938 745.173828125 330.560546875 754.623046875 c 0
 353.162109375 764.071289062 379.301757812 749.4765625 388.956054688 721.83203125 c 0
 398.609375 694.186523438 388.022460938 664.23828125 365.421875 654.790039062 c 0x00
162 667 m 0
 141.97265625 659.232421875 118.763671875 671.340820312 110.154296875 694.208007812 c 0
 101.54296875 717.075195312 110.879882812 741.807617188 130.90625 749.575195312 c 0
 150.934570312 757.34375 174.142578125 745.233398438 182.752929688 722.3671875 c 0
 191.36328125 699.5 182.028320312 674.767578125 162 667 c 0
426 -86 m 25
 16 -40 l 25
 21 154 l 1
 155 158 l 25x40
 153 464 l 25
 57 462 l 25
 53 564 l 1
 453 642 l 25
 455 460 l 1
 313 436 l 25x80
 305 150 l 25x40
 439 154 l 1
 426 -86 l 25
EndSplineSet
Validated: 33
EndChar

StartChar: igrave
Encoding: 236 236 125
Width: 460
Flags: W
HStem: 16 21G<243.739 423.083> 724 20G<346.436 449.22>
VStem: 149 160<287.75 538> 151 150<260 502.25>
LayerCount: 2
Fore
SplineSet
134 770 m 5xc0
 162 682 l 5
 244 682 l 5
 306 636 l 5
 380 654 l 5
 278 744 l 5
 134 770 l 5xc0
426 -86 m 25
 16 -40 l 25
 21 154 l 1
 155 158 l 25
 153 464 l 25
 57 462 l 25
 53 564 l 1
 453 642 l 25
 455 460 l 1
 313 436 l 25
 305 150 l 25
 439 154 l 1
 426 -86 l 25
EndSplineSet
Validated: 9
EndChar

StartChar: iacute
Encoding: 237 237 126
Width: 460
Flags: W
HStem: 16 21G<243.739 423.083> 724 20G<346.436 449.22>
VStem: 149 160<287.75 538> 151 150<260 502.25>
LayerCount: 2
Fore
SplineSet
424 776 m 5xc0
 396 688 l 5
 314 688 l 5
 252 642 l 5
 178 660 l 5
 280 750 l 5
 424 776 l 5xc0
426 -86 m 25
 16 -40 l 25
 21 154 l 1
 155 158 l 25
 153 464 l 25
 57 462 l 25
 53 564 l 1
 453 642 l 25
 455 460 l 1
 313 436 l 25
 305 150 l 25
 439 154 l 1
 426 -86 l 25
EndSplineSet
Validated: 1
EndChar

StartChar: icircumflex
Encoding: 238 238 127
Width: 460
Flags: W
HStem: 16 21G<243.739 423.083> 724 20G<346.436 449.22>
VStem: 149 160<287.75 538> 151 150<260 502.25>
LayerCount: 2
Fore
SplineSet
110 664 m 1xc0
 158 628 l 1
 238 710 l 1
 306 636 l 1
 380 654 l 1
 242 758 l 1
 110 664 l 1xc0
426 -86 m 25
 16 -40 l 25
 21 154 l 1
 155 158 l 25
 153 464 l 25
 57 462 l 25
 53 564 l 1
 453 642 l 25
 455 460 l 1
 313 436 l 25
 305 150 l 25
 439 154 l 1
 426 -86 l 25
EndSplineSet
Validated: 9
EndChar

StartChar: idieresis
Encoding: 239 239 128
Width: 460
Flags: W
HStem: 16 21G<243.739 423.083> 724 20G<346.436 449.22>
VStem: 149 160<287.75 538> 151 150<260 502.25>
LayerCount: 2
Fore
SplineSet
365.421875 654.790039062 m 0xc0
 342.8203125 645.341796875 316.680664062 659.934570312 307.026367188 687.581054688 c 0
 297.373046875 715.2265625 307.959960938 745.173828125 330.560546875 754.623046875 c 0
 353.162109375 764.071289062 379.301757812 749.4765625 388.956054688 721.83203125 c 0
 398.609375 694.186523438 388.022460938 664.23828125 365.421875 654.790039062 c 0xc0
162 667 m 0
 141.97265625 659.232421875 118.763671875 671.340820312 110.154296875 694.208007812 c 0
 101.54296875 717.075195312 110.879882812 741.807617188 130.90625 749.575195312 c 0
 150.934570312 757.34375 174.142578125 745.233398438 182.752929688 722.3671875 c 0
 191.36328125 699.5 182.028320312 674.767578125 162 667 c 0
426 -86 m 25
 16 -40 l 25
 21 154 l 1
 155 158 l 25
 153 464 l 25
 57 462 l 25
 53 564 l 1
 453 642 l 25
 455 460 l 1
 313 436 l 25
 305 150 l 25
 439 154 l 1
 426 -86 l 25
EndSplineSet
Validated: 33
EndChar

StartChar: asciicircum
Encoding: 94 94 129
Width: 306
Flags: W
HStem: 706 20G<137.286 172.222>
LayerCount: 2
Fore
SplineSet
15 656 m 25
 93 656 l 25
 155 726 l 25
 217 654 l 25
 291 672 l 25
 151 782 l 25
 15 656 l 25
EndSplineSet
Validated: 9
EndChar

StartChar: quotedbl
Encoding: 34 34 130
Width: 350
Flags: W
HStem: 670 20G<140.234 149.42 270.665 279.851>
LayerCount: 2
Fore
SplineSet
275 690 m 1
 284.701171875 642.293945312 288.125 611.841796875 244.184570312 506.278320312 c 0
 231.069335938 474.767578125 259.592773438 560.075195312 256.739257812 605.751953125 c 0
 275 690 l 1
193.048828125 630.567382812 m 0
 184.551757812 664.373046875 196.129882812 704.60546875 219.076171875 720.451171875 c 0
 242.020507812 736.298828125 267.411132812 721.594726562 275.908203125 687.791015625 c 0
 284.407226562 653.984375 272.827148438 613.752929688 249.8828125 597.90625 c 0
 226.9375 582.060546875 201.547851562 596.760742188 193.048828125 630.567382812 c 0
144.569335938 687.017578125 m 1
 154.270507812 639.311523438 157.694335938 608.859375 113.75390625 503.295898438 c 0
 100.638671875 471.78515625 129.162109375 557.092773438 126.30859375 602.76953125 c 0
 144.569335938 687.017578125 l 1
62.6181640625 627.584960938 m 0
 54.12109375 661.390625 65.69921875 701.623046875 88.6455078125 717.46875 c 0
 111.58984375 733.31640625 136.98046875 718.612304688 145.477539062 684.80859375 c 0
 153.9765625 651.001953125 142.396484375 610.770507812 119.452148438 594.923828125 c 0
 96.5068359375 579.078125 71.1171875 593.778320312 62.6181640625 627.584960938 c 0
EndSplineSet
Validated: 37
EndChar

StartChar: ntilde
Encoding: 241 241 131
Width: 576
Flags: W
LayerCount: 2
Fore
SplineSet
152 742 m 1
 256 777 273 756 328 740 c 0
 387.447265625 722.706054688 428.870117188 709.05859375 466 740 c 0
 468 682 l 1
 421 661 379.5390625 658.798828125 328 678 c 0
 277 697 259 725 152 684 c 0
 152 742 l 1
17 -54 m 1
 49 590 l 1
 317 340 l 1
 277 584 l 1
 559 550 l 1
 527 -72 l 1
 237 230 l 1
 319 -128 l 1
 17 -54 l 1
EndSplineSet
Validated: 33
EndChar

StartChar: multiply
Encoding: 215 215 132
Width: 378
Flags: W
HStem: 226.409 285.128
VStem: 57.3691 287.357
LayerCount: 2
Fore
SplineSet
57.369140625 486.116210938 m 25
 85.6142578125 511.537109375 l 25
 189.973632812 395.583007812 l 25
 315.143554688 513.618164062 l 25
 344.7265625 483.737304688 l 25
 213.907226562 366 l 25
 317.076171875 254.357421875 l 25
 283.033203125 226.409179688 l 25
 186.8515625 336.268554688 l 25
 85.6142578125 242.46484375 l 25
 60.044921875 267.884765625 l 25
 161.282226562 361.688476562 l 25
 57.369140625 486.116210938 l 25
EndSplineSet
Validated: 1
EndChar

StartChar: divide
Encoding: 247 247 133
Width: 351
Flags: HWO
HStem: 396 61<83 259>
VStem: 79 180
LayerCount: 2
Fore
SplineSet
23 453 m 1
 325 459 l 1
 326 398 l 1
 27 395 l 1
 23 453 l 1
115.87890625 274.744140625 m 0
 104.337890625 302.885742188 120.061523438 336.37890625 151.225585938 349.5703125 c 0
 182.38671875 362.762695312 216.8671875 350.522460938 228.409179688 322.380859375 c 0
 239.950195312 294.237304688 224.224609375 260.74609375 193.063476562 247.553710938 c 0
 161.901367188 234.362304688 127.419921875 246.600585938 115.87890625 274.744140625 c 0
122.788085938 531.635742188 m 0
 113.25 556.595703125 126.24609375 586.30078125 152 598 c 0
 177.75390625 609.700195312 206.25 598.845703125 215.788085938 573.885742188 c 0
 225.327148438 548.924804688 212.330078125 519.220703125 186.577148438 507.520507812 c 0
 160.823242188 495.8203125 132.327148438 506.674804688 122.788085938 531.635742188 c 0
EndSplineSet
EndChar

StartChar: less
Encoding: 60 60 134
Width: 428
Flags: W
LayerCount: 2
Fore
SplineSet
367 198 m 29
 19 342 l 29
 19 440 l 29
 389 594 l 29
 391 522 l 29
 81 396 l 29
 409 266 l 29
 367 198 l 29
EndSplineSet
Validated: 1
EndChar

StartChar: greater
Encoding: 62 62 135
Width: 428
Flags: W
LayerCount: 2
Fore
SplineSet
65.56640625 606.840820312 m 25
 408.762695312 451.740234375 l 25
 405.615234375 353.791015625 l 25
 30.861328125 211.751953125 l 25
 31.173828125 283.779296875 l 25
 345.060546875 399.758789062 l 25
 21.404296875 540.224609375 l 25
 65.56640625 606.840820312 l 25
EndSplineSet
Validated: 1
EndChar

StartChar: bar
Encoding: 124 124 136
Width: 168
Flags: W
VStem: 47 76<100 642.5> 51 64<177.5 670>
LayerCount: 2
Fore
SplineSet
47 98 m 25x80
 123 100 l 25x80
 115 720 l 25
 51 670 l 25x40
 47 98 l 25x80
EndSplineSet
Validated: 9
EndChar

StartChar: dollar
Encoding: 36 36 137
Width: 436
Flags: W
LayerCount: 2
Fore
SplineSet
57 16 m 1
 327 759 l 5
 383 776 l 1
 116 8 l 1
 57 16 l 1
41 501 m 0
 1.375 548.55078125 8.0634765625 631.143554688 63 685 c 0
 168.001953125 787.9375 380.540039062 721.489257812 422 662 c 0
 345 524 l 1
 273.319335938 558.92578125 165.846679688 579.775390625 191 491 c 0
 213.094726562 413.020507812 316 275 363 209 c 1
 396 128 330.376953125 34.935546875 249 39 c 0
 111.157226562 45.8857421875 46 142 46 142 c 1
 105 201 l 1
 105 201 351 -8 149 340 c 0
 41 501 l 0
EndSplineSet
Validated: 37
EndChar

StartChar: percent
Encoding: 37 37 138
Width: 696
Flags: W
HStem: 31.4082 66.5723<474.055 571.097> 273.013 50.8643<455.93 523.006> 419.408 66.5723<94.0539 191.097> 661.013 50.8643<75.9291 143.005>
LayerCount: 2
Fore
SplineSet
447.29296875 187.740234375 m 0
 447.29296875 145.104492188 474.88671875 97.98046875 509.634765625 97.98046875 c 0
 544.3828125 97.98046875 541.31640625 145.104492188 541.31640625 187.740234375 c 0
 541.31640625 230.376953125 520.876953125 273.012695312 486.127929688 273.012695312 c 0
 451.380859375 273.012695312 447.29296875 230.376953125 447.29296875 187.740234375 c 0
410.5 175.772460938 m 0
 394.1484375 291.712890625 472.874023438 325.32421875 535.184570312 323.876953125 c 0
 599.5703125 322.380859375 676.220703125 287.224609375 666 184 c 0
 658.0234375 103.427734375 605.703125 31.408203125 535.184570312 31.408203125 c 0
 469.776367188 31.408203125 421.833984375 95.4150390625 410.5 175.772460938 c 0
67.2919921875 575.740234375 m 0
 67.2919921875 533.104492188 94.8857421875 485.98046875 129.633789062 485.98046875 c 0
 164.3828125 485.98046875 161.31640625 533.104492188 161.31640625 575.740234375 c 0
 161.31640625 618.376953125 140.875976562 661.012695312 106.127929688 661.012695312 c 0
 71.3798828125 661.012695312 67.2919921875 618.376953125 67.2919921875 575.740234375 c 0
30.5 563.772460938 m 0
 14.1474609375 679.712890625 92.8740234375 713.32421875 155.18359375 711.876953125 c 0
 219.5703125 710.380859375 296.219726562 675.224609375 286 572 c 0
 278.022460938 491.427734375 225.702148438 419.408203125 155.18359375 419.408203125 c 0
 89.7763671875 419.408203125 41.833984375 483.415039062 30.5 563.772460938 c 0
173 30 m 1
 309 32 l 1
 511 698 l 1
 381 700 l 1
 173 30 l 1
EndSplineSet
Validated: 41
EndChar

StartChar: parenleft
Encoding: 40 40 139
Width: 138
Flags: W
HStem: 688 20G<33 78.0233>
VStem: 63 48<192 208.874>
LayerCount: 2
Fore
SplineSet
63 112 m 1
 23 230 1 600 65 708 c 0
 121 622 l 1
 67 512 79 308 111 192 c 0
 63 112 l 1
EndSplineSet
Validated: 33
EndChar

StartChar: parenright
Encoding: 41 41 140
Width: 138
Flags: W
VStem: 27 48<194 210.874>
LayerCount: 2
Fore
SplineSet
75 114 m 1
 115 232 137 602 73 710 c 0
 17 624 l 1
 71 514 59 310 27 194 c 0
 75 114 l 1
EndSplineSet
Validated: 41
EndChar

StartChar: Eth
Encoding: 208 208 141
Width: 540
Flags: W
HStem: 594 117<149 250.917>
LayerCount: 2
Fore
SplineSet
6 338 m 1
 -14 388 l 1
 316 405 l 1
 320 361 l 1
 6 338 l 1
193 144 m 25
 217 148 255 154 255 154 c 0
 401 244 364 542 211 594 c 9
 149 592 l 25
 193 144 l 25
103 0 m 1
 33 710 l 1
 311 711 l 1
 612.61328125 652.172851562 579.346679688 65.8798828125 335 17 c 0
 335 17 226 0 103 0 c 1
EndSplineSet
Validated: 37
EndChar

StartChar: periodcentered
Encoding: 183 183 142
Width: 158
Flags: W
LayerCount: 2
Fore
SplineSet
22 399 m 4
 9.6923828125 428.538085938 26.4609375 463.692382812 59.6923828125 477.538085938 c 4
 92.9228515625 491.384765625 129.692382812 478.538085938 142 449 c 4
 154.307617188 419.4609375 137.538085938 384.307617188 104.307617188 370.4609375 c 4
 71.0771484375 356.615234375 34.3076171875 369.4609375 22 399 c 4
EndSplineSet
Validated: 33
EndChar

StartChar: ordmasculine
Encoding: 186 186 143
Width: 158
Flags: W
HStem: 594 28<31 125.478>
LayerCount: 2
Fore
SplineSet
19 594 m 25
 31 622 l 25
 125 628 l 25
 136 599 l 25
 19 594 l 25
41.1806640625 685.772460938 m 4
 49.6123046875 666.12890625 74.798828125 657.586914062 97.5615234375 666.793945312 c 4
 120.325195312 676.001953125 131.811523438 699.37890625 123.380859375 719.022460938 c 4
 114.950195312 738.665039062 89.763671875 747.208007812 67 738 c 4
 44.2373046875 728.79296875 32.75 705.415039062 41.1806640625 685.772460938 c 4
21 678 m 4
 8.6923828125 707.538085938 25.4609375 742.692382812 58.6923828125 756.538085938 c 4
 91.9228515625 770.384765625 128.692382812 757.538085938 141 728 c 4
 153.307617188 698.4609375 136.538085938 663.307617188 103.307617188 649.4609375 c 4
 70.0771484375 635.615234375 33.3076171875 648.4609375 21 678 c 4
EndSplineSet
Validated: 33
EndChar

StartChar: degree
Encoding: 176 176 144
Width: 158
Flags: W
LayerCount: 2
Fore
SplineSet
41.1806640625 685.772460938 m 4
 49.6123046875 666.12890625 74.798828125 657.586914062 97.5615234375 666.793945312 c 4
 120.325195312 676.001953125 131.811523438 699.37890625 123.380859375 719.022460938 c 4
 114.950195312 738.665039062 89.763671875 747.208007812 67 738 c 4
 44.2373046875 728.79296875 32.75 705.415039062 41.1806640625 685.772460938 c 4
21 678 m 4
 8.6923828125 707.538085938 25.4609375 742.692382812 58.6923828125 756.538085938 c 4
 91.9228515625 770.384765625 128.692382812 757.538085938 141 728 c 4
 153.307617188 698.4609375 136.538085938 663.307617188 103.307617188 649.4609375 c 4
 70.0771484375 635.615234375 33.3076171875 648.4609375 21 678 c 4
EndSplineSet
Validated: 33
EndChar

StartChar: brokenbar
Encoding: 166 166 145
Width: 112
Flags: W
VStem: 19 70<48 275.5> 27 60<182 308 382 719.25> 35 48<402.75 728>
LayerCount: 2
Fore
SplineSet
27 350 m 25x40
 81 382 l 25
 83 728 l 25
 35 772 l 25x20
 27 350 l 25x40
19 48 m 25x80
 89 26 l 25x80
 87 338 l 25
 27 308 l 25x40
 19 48 l 25x80
EndSplineSet
Validated: 9
EndChar

StartChar: section
Encoding: 167 167 146
Width: 436
Flags: W
LayerCount: 2
Fore
SplineSet
71 353.209960938 m 0
 41.28125 387.921875 46.297274547 448.215448465 87.5 487.530273438 c 0
 166.251953125 562.673828125 269.905273438 503.426757812 301 460 c 0
 299 370 l 1
 245.239257812 395.49609375 164.634765625 410.715820312 183.5 345.91015625 c 0
 200.071289062 288.985351562 277.25 188.229492188 312.5 140.049804688 c 1
 337.25 80.919921875 288.033203125 12.982421875 227 15.9501953125 c 0
 123.618164062 20.9765625 74.75 91.1396484375 74.75 91.1396484375 c 1
 119 134.209960938 l 1
 119 134.209960938 303.5 -18.3603515625 152 235.6796875 c 0
 71 353.209960938 l 0
129 593.209960938 m 0
 99.28125 627.921875 104.297851562 688.21484375 145.5 727.530273438 c 0
 224.251953125 802.673828125 383.655273438 754.166992188 414.75 710.740234375 c 0
 357 610 l 1
 303.239257812 635.49609375 222.634765625 650.715820312 241.5 585.91015625 c 0
 258.071289062 528.985351562 335.25 428.229492188 370.5 380.049804688 c 1
 395.25 320.919921875 346.033221226 252.982794146 285 255.950195312 c 0
 181.618164062 260.9765625 133 308 133 308 c 1
 164 341 l 5
 164 341 361.5 221.639648438 210 475.6796875 c 0
 129 593.209960938 l 0
EndSplineSet
Validated: 37
EndChar

StartChar: dieresis
Encoding: 168 168 147
Width: 334
Flags: W
HStem: 669.958 99.833
LayerCount: 2
Fore
SplineSet
283.465820312 669.958007812 m 4
 260.864257812 660.509765625 234.724609375 675.102539062 225.0703125 702.749023438 c 4
 215.416992188 730.39453125 226.00390625 760.341796875 248.604492188 769.791015625 c 4
 271.206054688 779.239257812 297.345703125 764.64453125 307 737 c 4
 316.653320312 709.354492188 306.06640625 679.40625 283.465820312 669.958007812 c 4
80.0439453125 682.16796875 m 4
 60.0166015625 674.400390625 36.8076171875 686.508789062 28.1982421875 709.375976562 c 4
 19.5869140625 732.243164062 28.923828125 756.975585938 48.9501953125 764.743164062 c 4
 68.978515625 772.51171875 92.1865234375 760.401367188 100.796875 737.53515625 c 4
 109.407226562 714.66796875 100.072265625 689.935546875 80.0439453125 682.16796875 c 4
EndSplineSet
Validated: 33
EndChar

StartChar: ordfeminine
Encoding: 170 170 148
Width: 158
Flags: W
HStem: 594 28<31 125.478> 713.73 21G<65.3329 81.7783> 717.516 20G<55.4806 92.2334>
VStem: 19 117
LayerCount: 2
Fore
SplineSet
53.1806640625 713.73046875 m 25xd0
 67.6328125 737.515625 l 1xb0
 81.7783203125 714.065429688 l 1
 53.1806640625 713.73046875 l 25xd0
22.4306640625 659.459960938 m 1
 75.935546875 654.435546875 l 25
 75.6279296875 691.28515625 l 1
 92.2333984375 679.895507812 l 1
 97.4609375 654.100585938 l 25
 131.900390625 661.469726562 l 1
 95 768 l 1
 54.41015625 768 l 1
 22.4306640625 659.459960938 l 1
19 594 m 25
 31 622 l 25
 125 628 l 25
 136 599 l 25
 19 594 l 25
EndSplineSet
Validated: 9
EndChar

StartChar: AE
Encoding: 198 198 149
Width: 390
Flags: W
HStem: 32 222<434.25 616> 38 208<408 591.75> 722 20G<193.087 547.588>
LayerCount: 2
Fore
SplineSet
262 38 m 25x60
 245 192 l 1
 191 260 l 1
 192 40 l 25
 18 70 l 1
 140 719 l 9
 547 742 l 1
 550 640 l 25
 318 578 l 1
 362 444 l 1
 472 460 l 25
 490 336 l 25
 402 306 l 1
 408 246 l 1x60
 618 254 l 1
 616 32 l 9xa0
 262 38 l 25x60
148 389 m 5
 240 329 l 1
 203 602 l 1
 148 389 l 5
EndSplineSet
Validated: 1
EndChar

StartChar: cent
Encoding: 162 162 150
Width: 494
Flags: W
VStem: 206.513 75.0498<8.5 722.642> 210.463 63.1992<100.358 749.5>
LayerCount: 2
Fore
SplineSet
206.512695312 5.900390625 m 29x80
 281.5625 8.5 l 29x80
 273.662109375 814.5 l 29
 210.462890625 749.5 l 29x40
 206.512695312 5.900390625 l 29x80
416 59 m 0
 370 156 l 1
 370 156 99 93 125 329 c 0
 158.728515625 635.154296875 417 522 417 522 c 0
 483 666 l 1
 -52.1611328125 991.02734375 -202.555664062 -88.5048828125 416 59 c 0
EndSplineSet
Validated: 37
EndChar

StartChar: yen
Encoding: 165 165 151
Width: 466
Flags: W
LayerCount: 2
Fore
SplineSet
61 194 m 1
 415 222 l 1
 411 266 l 1
 41 244 l 1
 61 194 l 1
65 304 m 1
 419 332 l 1
 415 376 l 1
 45 354 l 1
 65 304 l 1
179 41 m 1
 307 41 l 1
 309 291 l 1
 445 637 l 1
 357 705 l 25
 261 383 l 1
 149 765 l 25
 15 659 l 25
 177 237 l 1
 179 41 l 1
EndSplineSet
Validated: 5
EndChar

StartChar: registered
Encoding: 174 174 152
Width: 392
Flags: W
HStem: 494 37.0557<187 229.328>
LayerCount: 2
Fore
SplineSet
182.02734375 432.712890625 m 5
 202.581054688 436.025390625 213.611328125 434.044921875 223.796875 455.90234375 c 4
 236.724609375 483.647460938 224.791015625 487.788085938 219.818359375 493.5859375 c 5
 187 494 l 5
 182.02734375 432.712890625 l 5
115.548828125 258.815429688 m 29
 141.559570312 531.055664062 l 5
 241.51953125 531.055664062 l 21
 261.918945312 526.956054688 274.159179688 517.115234375 280.279296875 502.35546875 c 28
 288.439453125 482.67578125 284.359375 468.735351562 275.178710938 449.875976562 c 28
 268.0390625 434.706054688 254.26953125 431.42578125 240.499023438 419.53515625 c 29
 264.979492188 401.49609375 l 5
 275.689453125 297.35546875 l 29
 232.849609375 282.595703125 l 29
 224.178710938 370.3359375 l 5
 202.758789062 393.295898438 l 5
 194.088867188 274.395507812 l 29
 115.548828125 258.815429688 l 29
87.7177734375 383.51953125 m 4
 110.483398438 317.321289062 178.487304688 288.534179688 239.946289062 319.5625 c 4
 301.408203125 350.592773438 332.421875 429.373046875 309.659179688 495.572265625 c 4
 286.896484375 561.767578125 218.892578125 590.557617188 157.430664062 559.526367188 c 4
 95.970703125 528.499023438 64.955078125 449.71484375 87.7177734375 383.51953125 c 4
33.23046875 357.326171875 m 4
 0 456.870117188 45.275390625 575.33984375 135 622 c 4
 224.72265625 668.663085938 324 625.370117188 357.23046875 525.826171875 c 4
 390.4609375 426.280273438 345.18359375 307.813476562 255.4609375 261.150390625 c 4
 165.73828125 214.490234375 66.4609375 257.780273438 33.23046875 357.326171875 c 4
EndSplineSet
Validated: 37
EndChar

StartChar: copyright
Encoding: 169 169 153
Width: 392
Flags: W
LayerCount: 2
Fore
SplineSet
250.756835938 343.696289062 m 4
 234.798828125 370.431640625 l 5
 234.798828125 370.431640625 140.78515625 353.067382812 149.805664062 418.114257812 c 4
 161.505859375 502.498046875 251.103515625 471.310546875 251.103515625 471.310546875 c 4
 274 511 l 5
 88.345703125 600.5859375 36.171875 303.040039062 250.756835938 343.696289062 c 4
115.548828125 258.815429688 m 1049
87.7177734375 383.51953125 m 0
 110.483398438 317.321289062 178.487304688 288.534179688 239.946289062 319.5625 c 0
 301.408203125 350.592773438 332.421875 429.373046875 309.659179688 495.572265625 c 0
 286.896484375 561.767578125 218.892578125 590.557617188 157.430664062 559.526367188 c 0
 95.970703125 528.499023438 64.955078125 449.71484375 87.7177734375 383.51953125 c 0
33.23046875 357.326171875 m 0
 0 456.870117188 45.275390625 575.33984375 135 622 c 0
 224.72265625 668.663085938 324 625.370117188 357.23046875 525.826171875 c 0
 390.4609375 426.280273438 345.18359375 307.813476562 255.4609375 261.150390625 c 0
 165.73828125 214.490234375 66.4609375 257.780273438 33.23046875 357.326171875 c 0
EndSplineSet
Validated: 41
EndChar

StartChar: uni00B9
Encoding: 185 185 154
Width: 207
Flags: W
VStem: 124.84 59.5195<418.4 503.197>
LayerCount: 2
Fore
SplineSet
16.9599609375 671.520507812 m 1
 103.759765625 673.760742188 l 1
 124.83984375 418.400390625 l 1
 184.359375 388.16015625 l 1
 198 788 l 1
 111.200195312 775.680664062 l 1
 16.9599609375 671.520507812 l 1
EndSplineSet
Validated: 9
EndChar

StartChar: mu
Encoding: 181 181 155
Width: 400
Flags: W
VStem: 21 90<0 222> 37 86<358.412 600> 295 82<366.911 610>
LayerCount: 2
Fore
SplineSet
21 0 m 25xa0
 111 -80 l 25xa0
 109 222 l 1
 201 170 279 194 357 268 c 0
 386.912109375 296.377929688 377 610 377 610 c 1
 301 612 l 1
 295 392 l 1
 267 316 147 316 123 390 c 0
 121 612 l 1
 37 600 l 1x60
 21 0 l 25xa0
EndSplineSet
Validated: 41
EndChar

StartChar: paragraph
Encoding: 182 182 156
Width: 476
Flags: W
VStem: 14 282<479.424 678.686> 230 76<76 324> 331 76<86 628.5> 335 64<163.5 656>
LayerCount: 2
Fore
SplineSet
331 84 m 25x20
 407 86 l 25x20
 399 706 l 25
 335 656 l 25x10
 331 84 l 25x20
225 324 m 1
 230 76 l 1
 306 42 l 1x40
 296 688 l 1
 100 708 l 1
 38 696 26 674 14 638 c 0x80
 -2 590 10.5185546875 543.200195312 28 497 c 0
 42 460 73 419 100 390 c 1
 225 324 l 1
EndSplineSet
Validated: 41
EndChar

StartChar: ae
Encoding: 230 230 157
Width: 390
Flags: W
HStem: 32 222<434.25 616> 38 208<408 591.75> 722 20G<193.087 547.588>
LayerCount: 2
Fore
SplineSet
262 38 m 25x60
 245 192 l 1
 191 260 l 1
 192 40 l 25
 18 70 l 1
 140 719 l 9
 547 742 l 1
 550 640 l 25
 318 578 l 1
 362 444 l 1
 472 460 l 25
 490 336 l 25
 402 306 l 1
 408 246 l 1x60
 618 254 l 1
 616 32 l 9xa0
 262 38 l 25x60
148 389 m 5
 240 329 l 1
 203 602 l 1
 148 389 l 5
EndSplineSet
Validated: 1
EndChar

StartChar: ccedilla
Encoding: 231 231 158
Width: 506
Flags: W
LayerCount: 2
Fore
SplineSet
177.739257812 -103.379882812 m 5
 177.739257812 -103.379882812 215.467773438 -5.26171875 284 -10 c 4
 339.1328125 -13.8125 373.319335938 -151.6796875 290.159179688 -179.049804688 c 4
 290.159179688 -179.049804688 279.379882812 -106.600585938 277.83984375 -100.16015625 c 5
 177.739257812 -103.379882812 l 5
424 59 m 0
 378 156 l 1
 378 156 107 93 133 329 c 0
 166.728515625 635.154296875 425 522 425 522 c 0
 491 666 l 1
 -44.1611328125 991.02734375 -194.555664062 -88.5048828125 424 59 c 0
EndSplineSet
Validated: 41
EndChar

StartChar: eth
Encoding: 240 240 159
Width: 540
Flags: W
HStem: 594 117<149 250.917>
LayerCount: 2
Fore
SplineSet
6 338 m 1
 -14 388 l 1
 316 405 l 1
 320 361 l 1
 6 338 l 1
193 144 m 25
 217 148 255 154 255 154 c 0
 401 244 364 542 211 594 c 9
 149 592 l 25
 193 144 l 25
103 0 m 1
 33 710 l 1
 311 711 l 1
 612.61328125 652.172851562 579.346679688 65.8798828125 335 17 c 0
 335 17 226 0 103 0 c 1
EndSplineSet
Validated: 37
EndChar

StartChar: plusminus
Encoding: 177 177 160
Width: 402
Flags: W
HStem: 344 44<11 167 209 355>
VStem: 167 38<388 560> 175 36<208 344>
LayerCount: 2
Fore
SplineSet
11 350 m 29xa0
 11 388 l 29
 167 388 l 29
 163 560 l 29
 205 562 l 29
 205 386 l 29xc0
 357 388 l 29
 355 344 l 29
 209 346 l 29
 211 208 l 29
 175 206 l 29
 173 344 l 29
 11 350 l 29xa0
35 18 m 1
 389 46 l 1
 385 90 l 1
 15 68 l 1
 35 18 l 1
EndSplineSet
Validated: 9
EndChar

StartChar: Ugrave
Encoding: 217 217 161
Width: 390
Flags: W
HStem: 664 20G<326.829 376>
VStem: 328 48<564.462 676>
LayerCount: 2
Fore
SplineSet
56 778 m 1
 84 690 l 1
 166 690 l 1
 228 644 l 1
 302 662 l 1
 200 752 l 1
 56 778 l 1
12 602 m 5
 140 676 l 5
 189 242 l 21
 231 24 293 108 302 240 c 4
 328 684 l 13
 376 676 l 5
 375 198 l 5
 375 198 355 -38 229 -6 c 4
 51.2705078125 39.1376953125 12 602 12 602 c 5
EndSplineSet
Validated: 41
EndChar

StartChar: Uacute
Encoding: 218 218 162
Width: 390
Flags: W
HStem: 664 20G<326.829 376>
VStem: 328 48<564.462 676>
LayerCount: 2
Fore
SplineSet
417 798 m 1
 389 710 l 1
 307 710 l 1
 245 664 l 1
 171 682 l 1
 273 772 l 1
 417 798 l 1
12 602 m 1
 140 676 l 1
 189 242 l 17
 231 24 293 108 302 240 c 0
 328 684 l 9
 376 676 l 1
 375 198 l 1
 375 198 355 -38 229 -6 c 0
 51.2705078125 39.1376953125 12 602 12 602 c 1
EndSplineSet
Validated: 33
EndChar

StartChar: Ucircumflex
Encoding: 219 219 163
Width: 390
Flags: W
HStem: 710 20G<160.739 224.294 326.829 376>
VStem: 328 48<564.462 676>
LayerCount: 2
Fore
SplineSet
63 722 m 5
 111 684 l 1
 199 730 l 1
 285 662 l 1
 301 716 l 1
 201 778 l 1
 63 722 l 5
12 602 m 1
 140 676 l 1
 189 242 l 17
 231 24 293 108 302 240 c 0
 328 684 l 9
 376 676 l 1
 375 198 l 1
 375 198 355 -38 229 -6 c 0
 51.2705078125 39.1376953125 12 602 12 602 c 1
EndSplineSet
Validated: 41
EndChar

StartChar: Udieresis
Encoding: 220 220 164
Width: 390
Flags: W
HStem: 664 20G<326.829 376>
VStem: 328 48<564.462 676>
LayerCount: 2
Fore
SplineSet
340 713 m 4
 317.3984375 703.551757812 291.258789062 718.14453125 281.604492188 745.791015625 c 4
 271.951171875 773.436523438 282.538085938 803.383789062 305.138671875 812.833007812 c 4
 327.740234375 822.28125 353.879882812 807.686523438 363.534179688 780.041992188 c 4
 373.1875 752.396484375 362.600585938 722.448242188 340 713 c 4
136.578125 725.209960938 m 4
 116.55078125 717.442382812 93.341796875 729.55078125 84.732421875 752.41796875 c 4
 76.12109375 775.28515625 85.4580078125 800.017578125 105.484375 807.78515625 c 4
 125.512695312 815.553710938 148.720703125 803.443359375 157.331054688 780.577148438 c 4
 165.94140625 757.709960938 156.606445312 732.977539062 136.578125 725.209960938 c 4
12 602 m 1
 140 676 l 1
 189 242 l 17
 231 24 293 108 302 240 c 0
 328 684 l 9
 376 676 l 1
 375 198 l 1
 375 198 355 -38 229 -6 c 0
 51.2705078125 39.1376953125 12 602 12 602 c 1
EndSplineSet
Validated: 33
EndChar

StartChar: Yacute
Encoding: 221 221 165
Width: 466
Flags: W
HStem: 696 21G<175 275.957>
LayerCount: 2
Fore
SplineSet
421 830 m 5
 393 742 l 5
 311 742 l 5
 249 696 l 5
 175 714 l 5
 277 804 l 5
 421 830 l 5
179 41 m 1
 307 41 l 1
 309 291 l 1
 445 637 l 1
 357 705 l 25
 261 383 l 1
 149 765 l 25
 15 659 l 25
 177 237 l 1
 179 41 l 1
EndSplineSet
Validated: 9
EndChar

StartChar: ugrave
Encoding: 249 249 166
Width: 390
Flags: W
HStem: 664 20G<326.829 376>
VStem: 328 48<564.462 676>
LayerCount: 2
Fore
SplineSet
56 778 m 1
 84 690 l 1
 166 690 l 1
 228 644 l 1
 302 662 l 1
 200 752 l 1
 56 778 l 1
12 602 m 5
 140 676 l 5
 189 242 l 21
 231 24 293 108 302 240 c 4
 328 684 l 13
 376 676 l 5
 375 198 l 5
 375 198 355 -38 229 -6 c 4
 51.2705078125 39.1376953125 12 602 12 602 c 5
EndSplineSet
Validated: 41
EndChar

StartChar: uacute
Encoding: 250 250 167
Width: 390
Flags: W
HStem: 664 20G<326.829 376>
VStem: 328 48<564.462 676>
LayerCount: 2
Fore
SplineSet
417 798 m 1
 389 710 l 1
 307 710 l 1
 245 664 l 1
 171 682 l 1
 273 772 l 1
 417 798 l 1
12 602 m 1
 140 676 l 1
 189 242 l 17
 231 24 293 108 302 240 c 0
 328 684 l 9
 376 676 l 1
 375 198 l 1
 375 198 355 -38 229 -6 c 0
 51.2705078125 39.1376953125 12 602 12 602 c 1
EndSplineSet
Validated: 33
EndChar

StartChar: ucircumflex
Encoding: 251 251 168
Width: 390
Flags: W
HStem: 710 20G<160.739 224.294 326.829 376>
VStem: 328 48<564.462 676>
LayerCount: 2
Fore
SplineSet
63 722 m 5
 111 684 l 1
 199 730 l 1
 285 662 l 1
 301 716 l 1
 201 778 l 1
 63 722 l 5
12 602 m 1
 140 676 l 1
 189 242 l 17
 231 24 293 108 302 240 c 0
 328 684 l 9
 376 676 l 1
 375 198 l 1
 375 198 355 -38 229 -6 c 0
 51.2705078125 39.1376953125 12 602 12 602 c 1
EndSplineSet
Validated: 41
EndChar

StartChar: udieresis
Encoding: 252 252 169
Width: 390
Flags: W
HStem: 664 20G<326.829 376>
VStem: 328 48<564.462 676>
LayerCount: 2
Fore
SplineSet
340 713 m 4
 317.3984375 703.551757812 291.258789062 718.14453125 281.604492188 745.791015625 c 4
 271.951171875 773.436523438 282.538085938 803.383789062 305.138671875 812.833007812 c 4
 327.740234375 822.28125 353.879882812 807.686523438 363.534179688 780.041992188 c 4
 373.1875 752.396484375 362.600585938 722.448242188 340 713 c 4
136.578125 725.209960938 m 4
 116.55078125 717.442382812 93.341796875 729.55078125 84.732421875 752.41796875 c 4
 76.12109375 775.28515625 85.4580078125 800.017578125 105.484375 807.78515625 c 4
 125.512695312 815.553710938 148.720703125 803.443359375 157.331054688 780.577148438 c 4
 165.94140625 757.709960938 156.606445312 732.977539062 136.578125 725.209960938 c 4
12 602 m 1
 140 676 l 1
 189 242 l 17
 231 24 293 108 302 240 c 0
 328 684 l 9
 376 676 l 1
 375 198 l 1
 375 198 355 -38 229 -6 c 0
 51.2705078125 39.1376953125 12 602 12 602 c 1
EndSplineSet
Validated: 33
EndChar

StartChar: yacute
Encoding: 253 253 170
Width: 466
Flags: W
HStem: 696 21G<175 275.957>
LayerCount: 2
Fore
SplineSet
421 830 m 5
 393 742 l 5
 311 742 l 5
 249 696 l 5
 175 714 l 5
 277 804 l 5
 421 830 l 5
179 41 m 1
 307 41 l 1
 309 291 l 1
 445 637 l 1
 357 705 l 25
 261 383 l 1
 149 765 l 25
 15 659 l 25
 177 237 l 1
 179 41 l 1
EndSplineSet
Validated: 9
EndChar

StartChar: ydieresis
Encoding: 255 255 171
Width: 470
Flags: W
LayerCount: 2
Fore
SplineSet
369.465820312 678.958007812 m 0
 346.864257812 669.509765625 320.724609375 684.102539062 311.0703125 711.749023438 c 0
 301.416992188 739.39453125 312.00390625 769.341796875 334.604492188 778.791015625 c 0
 357.206054688 788.239257812 383.345703125 773.64453125 393 746 c 0
 402.653320312 718.354492188 392.06640625 688.40625 369.465820312 678.958007812 c 0
166.043945312 691.16796875 m 0
 146.016601562 683.400390625 122.807617188 695.508789062 114.198242188 718.375976562 c 0
 105.586914062 741.243164062 114.923828125 765.975585938 134.950195312 773.743164062 c 0
 154.978515625 781.51171875 178.186523438 769.401367188 186.796875 746.53515625 c 0
 195.407226562 723.66796875 186.072265625 698.935546875 166.043945312 691.16796875 c 0
187 -78 m 1
 315 -78 l 1
 317 172 l 1
 453 518 l 1
 365 586 l 25
 278 262 l 1
 166 644 l 25
 23 540 l 25
 185 118 l 1
 187 -78 l 1
EndSplineSet
Validated: 41
EndChar

StartChar: germandbls
Encoding: 223 223 172
Width: 474
Flags: HW
HStem: 689.865 38.1348<119.915 199>
LayerCount: 2
Fore
SplineSet
118 39 m 1
 27 36 l 1
 70 728 l 1
 179 739 l 1
 179 739 665 724 365 425 c 0
 365 425 629 85 323 49 c 0
 323 49 270 70 236 83 c 1
 573 162 318.099609375 415.575195312 318.099609375 415.575195312 c 0
 581 671 193 699 193 699 c 1
 119.915039062 689.865234375 l 1
 138 98 l 1
 131 56 l 5
 118 39 l 1
EndSplineSet
EndChar

StartChar: guillemotleft
Encoding: 171 171 173
Width: 428
Flags: W
LayerCount: 2
Fore
SplineSet
333 210 m 25
 211 344 l 1
 211 442 l 1
 355 606 l 1
 369 502 l 25
 273 398 l 1
 375 278 l 25
 333 210 l 25
141 208 m 25
 19 342 l 1
 19 440 l 1
 163 604 l 1
 177 500 l 25
 81 396 l 1
 183 276 l 25
 141 208 l 25
EndSplineSet
Validated: 1
EndChar

StartChar: guillemotright
Encoding: 187 187 174
Width: 428
Flags: W
LayerCount: 2
Fore
SplineSet
80 212 m 25
 202 346 l 1
 202 444 l 1
 58 608 l 1
 44 504 l 25
 140 400 l 1
 38 280 l 25
 80 212 l 25
272 210 m 25
 394 344 l 1
 394 442 l 1
 250 606 l 1
 236 502 l 25
 332 398 l 1
 230 278 l 25
 272 210 l 25
EndSplineSet
Validated: 9
EndChar

StartChar: macron
Encoding: 175 175 175
Width: 402
Flags: W
LayerCount: 2
Fore
SplineSet
37 711 m 1
 391 739 l 1
 387 783 l 1
 17 761 l 1
 37 711 l 1
EndSplineSet
Validated: 9
EndChar

StartChar: uni00AD
Encoding: 173 173 176
Width: 402
Flags: W
LayerCount: 2
Fore
SplineSet
77.16015625 376 m 1
 332.040039062 398.400390625 l 1
 329.16015625 433.599609375 l 1
 62.759765625 416 l 1
 77.16015625 376 l 1
EndSplineSet
Validated: 9
EndChar

StartChar: logicalnot
Encoding: 172 172 177
Width: 426
Flags: W
HStem: 402 56<45 353.5> 404 62<68.5 355>
VStem: 349 50<286.88 404>
LayerCount: 2
Fore
SplineSet
21 458 m 25xa0
 401 466 l 25
 399 280 l 25
 349 288 l 25
 355 404 l 25x60
 45 402 l 25
 21 458 l 25xa0
EndSplineSet
Validated: 1
EndChar

StartChar: aring
Encoding: 229 229 178
Width: 392
Flags: W
LayerCount: 2
Fore
SplineSet
118 291 m 25
 165 433 l 1
 211 293 l 1
 118 291 l 25
18 -33 m 1
 192 -63 l 25
 191 157 l 1
 245 89 l 1
 262 -65 l 25
 374 -21 l 1
 254 615 l 1
 122 615 l 1
 18 -33 l 1
146.48828125 683.234375 m 4
 154.919921875 663.590820312 180.106445312 655.048828125 202.869140625 664.255859375 c 4
 225.6328125 673.463867188 237.119140625 696.840820312 228.688476562 716.484375 c 4
 220.2578125 736.126953125 195.071289062 744.669921875 172.307617188 735.461914062 c 4
 149.544921875 726.254882812 138.057617188 702.876953125 146.48828125 683.234375 c 4
126.307617188 675.461914062 m 4
 114 705 130.768554688 740.154296875 164 754 c 4
 197.23046875 767.846679688 234 755 246.307617188 725.461914062 c 4
 258.615234375 695.922851562 241.845703125 660.76953125 208.615234375 646.922851562 c 4
 175.384765625 633.077148438 138.615234375 645.922851562 126.307617188 675.461914062 c 4
EndSplineSet
Validated: 41
EndChar

StartChar: cedilla
Encoding: 184 184 179
Width: 506
Flags: W
HStem: -179.05 169.05
LayerCount: 2
Fore
SplineSet
177.739257812 -103.379882812 m 5
 177.739257812 -103.379882812 215.467773438 -5.26171875 284 -10 c 4
 339.1328125 -13.8125 373.319335938 -151.6796875 290.159179688 -179.049804688 c 4
 290.159179688 -179.049804688 279.379882812 -106.600585938 277.83984375 -100.16015625 c 5
 177.739257812 -103.379882812 l 5
EndSplineSet
Validated: 33
EndChar

StartChar: Ccaron
Encoding: 268 268 180
Width: 494
Flags: W
HStem: 737 21G<228.165 263.242>
LayerCount: 2
Fore
SplineSet
386.765625 801.171875 m 25
 308.831054688 804.385742188 l 25
 244 737 l 25
 185.01953125 811.493164062 l 25
 110.340820312 796.557617188 l 25
 245.689453125 680.8828125 l 25
 386.765625 801.171875 l 25
418 -16 m 0
 372 81 l 1
 372 81 101 18 127 254 c 0
 160.728515625 560.154296875 419 447 419 447 c 0
 485 591 l 1
 -50.1611328125 916.02734375 -200.555664062 -163.504882812 418 -16 c 0
EndSplineSet
Validated: 41
EndChar

StartChar: Aogonek
Encoding: 260 260 181
Width: 390
Flags: W
HStem: 698 20G<118.79 257.774>
LayerCount: 2
Fore
SplineSet
118 394 m 29
 211 396 l 5
 165 536 l 5
 118 394 l 29
245 192 m 1
 191 260 l 1
 192 40 l 25
 18 70 l 1
 122 718 l 1
 254 718 l 1
 374 82 l 9
 376 32 l 25
 344 9 l 25
 316 -13 l 25
 306 -40 l 25
 312 -71 l 25
 342 -95 l 25
 364 -107 l 25
 364 -123 l 25
 344 -134 l 25
 320 -143 l 25
 292 -141 l 25
 268 -129 l 1
 252 -106 l 1
 246 -77 l 1
 252 -44 l 1
 262 -8 l 1
 284 24 l 1
 274 36 l 1
 245 192 l 1
EndSplineSet
Validated: 1
EndChar

StartChar: aogonek
Encoding: 261 261 182
Width: 390
Flags: W
HStem: 698 20G<118.79 257.774>
LayerCount: 2
Fore
SplineSet
118 394 m 29
 211 396 l 5
 165 536 l 5
 118 394 l 29
245 192 m 1
 191 260 l 1
 192 40 l 25
 18 70 l 1
 122 718 l 1
 254 718 l 1
 374 82 l 9
 376 32 l 25
 344 9 l 25
 316 -13 l 25
 306 -40 l 25
 312 -71 l 25
 342 -95 l 25
 364 -107 l 25
 364 -123 l 25
 344 -134 l 25
 320 -143 l 25
 292 -141 l 25
 268 -129 l 1
 252 -106 l 1
 246 -77 l 1
 252 -44 l 1
 262 -8 l 1
 284 24 l 1
 274 36 l 1
 245 192 l 1
EndSplineSet
Validated: 1
EndChar

StartChar: Lslash
Encoding: 321 321 183
Width: 438
Flags: W
HStem: 690 20G<47 119.627> 690 20G<47 119.627>
VStem: 11 108<572.233 681.944>
LayerCount: 2
Fore
SplineSet
-27 361 m 29x20
 401 428 l 29
 370 366 l 29
 0 266 l 29
 -27 361 l 29x20
54 18 m 25
 11 680 l 1
 119 710 l 25xa0
 135 200 l 25
 355 232 l 1
 422 18 l 25
 54 18 l 25
EndSplineSet
Validated: 5
EndChar

StartChar: ccaron
Encoding: 269 269 184
Width: 494
Flags: W
HStem: 706 20G<137.286 172.222>
LayerCount: 2
Fore
SplineSet
386.765625 801.171875 m 25
 308.831054688 804.385742188 l 25
 244 737 l 25
 185.01953125 811.493164062 l 25
 110.340820312 796.557617188 l 25
 245.689453125 680.8828125 l 25
 386.765625 801.171875 l 25
418 -16 m 0
 372 81 l 1
 372 81 101 18 127 254 c 0
 160.728515625 560.154296875 419 447 419 447 c 0
 485 591 l 1
 -50.1611328125 916.02734375 -200.555664062 -163.504882812 418 -16 c 0
EndSplineSet
Validated: 41
EndChar

StartChar: nacute
Encoding: 324 324 185
Width: 582
Flags: W
LayerCount: 2
Fore
SplineSet
401 771 m 1
 373 683 l 1
 291 683 l 1
 229 637 l 1
 155 655 l 1
 257 745 l 1
 401 771 l 1
23 -54 m 1
 55 590 l 1
 323 340 l 1
 283 584 l 1
 565 550 l 1
 533 -72 l 1
 243 230 l 1
 325 -128 l 1
 23 -54 l 1
EndSplineSet
Validated: 1
EndChar

StartChar: Ohungarumlaut
Encoding: 336 336 186
Width: 546
Flags: W
HStem: -116 254<198 385> 703 76<208.333 255 433 473>
LayerCount: 2
Fore
SplineSet
45 657 m 1
 123 657 l 1
 175 691 l 1
 255 703 l 1
 303 779 l 1
 151 773 l 1
 45 657 l 1
263 655 m 1
 341 655 l 1
 393 689 l 1
 473 701 l 1
 521 777 l 1
 369 771 l 1
 263 655 l 1
227 344 m 0
 227 230 283 138 351 138 c 0
 419 138 475 230 475 344 c 0
 475 458 419 550 351 550 c 0
 283 550 227 458 227 344 c 0
16 283 m 0
 5.0703125 446.940429688 81 610 251 630 c 0
 418.842773438 649.74609375 547 558 527 282 c 0
 511.388671875 66.564453125 426 -116 257 -116 c 0
 139 -116 27 118 16 283 c 0
EndSplineSet
Validated: 41
EndChar

StartChar: Nacute
Encoding: 323 323 187
Width: 582
Flags: W
LayerCount: 2
Fore
SplineSet
401 771 m 1
 373 683 l 1
 291 683 l 1
 229 637 l 1
 155 655 l 1
 257 745 l 1
 401 771 l 1
23 -54 m 1
 55 590 l 1
 323 340 l 1
 283 584 l 1
 565 550 l 1
 533 -72 l 1
 243 230 l 1
 325 -128 l 1
 23 -54 l 1
EndSplineSet
Validated: 1
EndChar

StartChar: ohungarumlaut
Encoding: 337 337 188
Width: 546
Flags: W
HStem: -116 254<198 385> 700 76<314.333 361>
LayerCount: 2
Fore
SplineSet
45 657 m 1
 123 657 l 1
 175 691 l 1
 255 703 l 1
 303 779 l 1
 151 773 l 1
 45 657 l 1
263 655 m 1
 341 655 l 1
 393 689 l 1
 473 701 l 1
 521 777 l 1
 369 771 l 1
 263 655 l 1
227 344 m 0
 227 230 283 138 351 138 c 0
 419 138 475 230 475 344 c 0
 475 458 419 550 351 550 c 0
 283 550 227 458 227 344 c 0
16 283 m 0
 5.0703125 446.940429688 81 610 251 630 c 0
 418.842773438 649.74609375 547 558 527 282 c 0
 511.388671875 66.564453125 426 -116 257 -116 c 0
 139 -116 27 118 16 283 c 0
EndSplineSet
Validated: 41
EndChar

StartChar: Dcroat
Encoding: 272 272 189
Width: 540
Flags: W
HStem: 594 117<149 250.917>
LayerCount: 2
Fore
SplineSet
6 338 m 1
 -14 388 l 1
 316 405 l 1
 320 361 l 1
 6 338 l 1
193 144 m 25
 217 148 255 154 255 154 c 0
 401 244 364 542 211 594 c 9
 149 592 l 25
 193 144 l 25
103 0 m 1
 33 710 l 1
 311 711 l 1
 612.61328125 652.172851562 579.346679688 65.8798828125 335 17 c 0
 335 17 226 0 103 0 c 1
EndSplineSet
Validated: 37
EndChar

StartChar: dcroat
Encoding: 273 273 190
Width: 540
Flags: W
HStem: 594 117<149 250.917>
LayerCount: 2
Fore
SplineSet
6 338 m 1
 -14 388 l 1
 316 405 l 1
 320 361 l 1
 6 338 l 1
193 144 m 25
 217 148 255 154 255 154 c 0
 401 244 364 542 211 594 c 9
 149 592 l 25
 193 144 l 25
103 0 m 1
 33 710 l 1
 311 711 l 1
 612.61328125 652.172851562 579.346679688 65.8798828125 335 17 c 0
 335 17 226 0 103 0 c 1
EndSplineSet
Validated: 37
EndChar

StartChar: Abreve
Encoding: 258 258 191
Width: 390
Flags: W
LayerCount: 2
Fore
SplineSet
63 757 m 29
 133 771 l 25
 179 719 l 25
 247 769 l 25
 309 757 l 25
 179 667 l 25
 63 757 l 29
118 291 m 25
 165 433 l 1
 211 293 l 1
 118 291 l 25
18 -33 m 1
 192 -63 l 25
 191 157 l 1
 245 89 l 1
 262 -65 l 25
 374 -21 l 1
 254 615 l 1
 122 615 l 1
 18 -33 l 1
EndSplineSet
Validated: 9
EndChar

StartChar: quotedblright
Encoding: 8221 8221 192
Width: 350
Flags: W
HStem: 670 20G<140.234 149.42 270.665 279.851>
LayerCount: 2
Fore
SplineSet
275 690 m 1
 284.701171875 642.293945312 288.125 611.841796875 244.184570312 506.278320312 c 0
 231.069335938 474.767578125 259.592773438 560.075195312 256.739257812 605.751953125 c 0
 275 690 l 1
193.048828125 630.567382812 m 0
 184.551757812 664.373046875 196.129882812 704.60546875 219.076171875 720.451171875 c 0
 242.020507812 736.298828125 267.411132812 721.594726562 275.908203125 687.791015625 c 0
 284.407226562 653.984375 272.827148438 613.752929688 249.8828125 597.90625 c 0
 226.9375 582.060546875 201.547851562 596.760742188 193.048828125 630.567382812 c 0
144.569335938 687.017578125 m 1
 154.270507812 639.311523438 157.694335938 608.859375 113.75390625 503.295898438 c 0
 100.638671875 471.78515625 129.162109375 557.092773438 126.30859375 602.76953125 c 0
 144.569335938 687.017578125 l 1
62.6181640625 627.584960938 m 0
 54.12109375 661.390625 65.69921875 701.623046875 88.6455078125 717.46875 c 0
 111.58984375 733.31640625 136.98046875 718.612304688 145.477539062 684.80859375 c 0
 153.9765625 651.001953125 142.396484375 610.770507812 119.452148438 594.923828125 c 0
 96.5068359375 579.078125 71.1171875 593.778320312 62.6181640625 627.584960938 c 0
EndSplineSet
Validated: 37
EndChar

StartChar: OE
Encoding: 338 338 193
Width: 929
Flags: HW
HStem: 0 253<263.756 364.548> 19 222<711.25 893> 665 81<257.452 364.548>
LayerCount: 2
Fore
SplineSet
254 746 m 1x60
 84 726 8.0703125 562.940429688 19 399 c 0
 30.000326175 234.000021745 67 32 329 0 c 5xa0
 893 19 l 1
 895 241 l 1
 685 233 l 1
 679 293 l 1
 767 323 l 25
 749 447 l 25
 639 431 l 1
 595 565 l 1
 827 627 l 1
 819 766 l 9
 254 746 l 1x60
187 459 m 0
 187 573 243 665 311 665 c 0
 379 665 435 573 435 459 c 0
 435 345 379 253 311 253 c 0
 243 253 187 345 187 459 c 0
EndSplineSet
EndChar

StartChar: oe
Encoding: 339 339 194
Width: 929
Flags: W
HStem: 0 253<263.756 364.548> 19 222<711.25 893> 665 81<257.452 364.548>
LayerCount: 2
Fore
SplineSet
254 746 m 1x60
 84 726 8.0703125 562.940429688 19 399 c 0
 30.000326175 234.000021745 67 32 329 0 c 5xa0
 893 19 l 1
 895 241 l 1
 685 233 l 1
 679 293 l 1
 767 323 l 25
 749 447 l 25
 639 431 l 1
 595 565 l 1
 827 627 l 1
 819 766 l 9
 254 746 l 1x60
187 459 m 0
 187 573 243 665 311 665 c 0
 379 665 435 573 435 459 c 0
 435 345 379 253 311 253 c 0
 243 253 187 345 187 459 c 0
EndSplineSet
EndChar

StartChar: Ydieresis
Encoding: 376 376 195
Width: 470
Flags: W
LayerCount: 2
Fore
SplineSet
369.465820312 678.958007812 m 0
 346.864257812 669.509765625 320.724609375 684.102539062 311.0703125 711.749023438 c 0
 301.416992188 739.39453125 312.00390625 769.341796875 334.604492188 778.791015625 c 0
 357.206054688 788.239257812 383.345703125 773.64453125 393 746 c 0
 402.653320312 718.354492188 392.06640625 688.40625 369.465820312 678.958007812 c 0
166.043945312 691.16796875 m 0
 146.016601562 683.400390625 122.807617188 695.508789062 114.198242188 718.375976562 c 0
 105.586914062 741.243164062 114.923828125 765.975585938 134.950195312 773.743164062 c 0
 154.978515625 781.51171875 178.186523438 769.401367188 186.796875 746.53515625 c 0
 195.407226562 723.66796875 186.072265625 698.935546875 166.043945312 691.16796875 c 0
187 -78 m 1
 315 -78 l 1
 317 172 l 1
 453 518 l 1
 365 586 l 25
 278 262 l 1
 166 644 l 25
 23 540 l 25
 185 118 l 1
 187 -78 l 1
EndSplineSet
Validated: 41
EndChar

StartChar: Cacute
Encoding: 262 262 196
Width: 494
Flags: W
LayerCount: 2
Fore
SplineSet
387 748 m 1
 308.831054688 804.385742188 l 1
 211 775 l 5
 133 701 l 1
 167 659 l 1
 235 717 l 1
 387 748 l 1
418 -16 m 0
 372 81 l 1
 372 81 101 18 127 254 c 0
 160.728515625 560.154296875 419 447 419 447 c 0
 485 591 l 1
 -50.1611328125 916.02734375 -200.555664062 -163.504882812 418 -16 c 0
EndSplineSet
Validated: 41
EndChar

StartChar: uni0219
Encoding: 537 537 197
Width: 436
Flags: W
LayerCount: 2
Fore
SplineSet
279 -22 m 5
 296 -69 302 -99 225 -203 c 4
 202.015625 -234.043945312 252 -150 247 -105 c 4
 279 -22 l 5
135.391601562 -80.5517578125 m 4
 120.5 -47.248046875 140.7890625 -7.611328125 181 8 c 4
 221.208007812 23.6123046875 265.700195312 9.126953125 280.591796875 -24.1767578125 c 4
 295.484375 -57.482421875 275.192382812 -97.1181640625 234.984375 -112.729492188 c 4
 194.775390625 -128.340820312 150.284179688 -113.857421875 135.391601562 -80.5517578125 c 4
41 501 m 0
 1.375 548.55078125 8.0634765625 631.143554688 63 685 c 0
 168.001953125 787.9375 380.540039062 721.489257812 422 662 c 0
 345 524 l 1
 273.319335938 558.92578125 165.846679688 579.775390625 191 491 c 0
 213.094726562 413.020507812 316 275 363 209 c 1
 396 128 330.376953125 34.935546875 249 39 c 0
 111.157226562 45.8857421875 46 142 46 142 c 1
 105 201 l 1
 105 201 351 -8 149 340 c 0
 41 501 l 0
EndSplineSet
Validated: 37
EndChar

StartChar: Euro
Encoding: 8364 8364 198
Width: 567
Flags: W
LayerCount: 2
Fore
SplineSet
28 353 m 1
 382 381 l 1
 378 425 l 1
 8 403 l 1
 28 353 l 1
31 260 m 1
 385 288 l 1
 381 332 l 1
 11 310 l 1
 31 260 l 1
489 59 m 0
 443 156 l 1
 443 156 172 93 198 329 c 0
 231.728515625 635.154296875 490 522 490 522 c 0
 556 666 l 1
 20.8388671875 991.02734375 -129.555664062 -88.5048828125 489 59 c 0
EndSplineSet
Validated: 37
EndChar

StartChar: quotedblbase
Encoding: 8222 8222 199
Width: 350
Flags: W
LayerCount: 2
Fore
SplineSet
276.354492188 219.53125 m 5
 286.055664062 171.825195312 289.479492188 141.373046875 245.5390625 35.8095703125 c 4
 232.423828125 4.298828125 260.947265625 89.6064453125 258.09375 135.283203125 c 4
 276.354492188 219.53125 l 5
194.403320312 160.098632812 m 4
 185.90625 193.904296875 197.484375 234.13671875 220.430664062 249.982421875 c 4
 243.375 265.830078125 268.765625 251.125976562 277.262695312 217.322265625 c 4
 285.76171875 183.515625 274.181640625 143.284179688 251.237304688 127.4375 c 4
 228.291992188 111.591796875 202.90234375 126.291992188 194.403320312 160.098632812 c 4
145.923828125 216.548828125 m 5
 155.625 168.842773438 159.048828125 138.390625 115.108398438 32.8271484375 c 4
 101.993164062 1.31640625 130.516601562 86.6240234375 127.663085938 132.30078125 c 4
 145.923828125 216.548828125 l 5
63.97265625 157.116210938 m 4
 55.4755859375 190.921875 67.0537109375 231.154296875 90 247 c 4
 112.944335938 262.84765625 138.334960938 248.143554688 146.83203125 214.33984375 c 4
 155.331054688 180.533203125 143.750976562 140.301757812 120.806640625 124.455078125 c 4
 97.861328125 108.609375 72.4716796875 123.309570312 63.97265625 157.116210938 c 4
EndSplineSet
Validated: 37
EndChar

StartChar: Scaron
Encoding: 352 352 200
Width: 436
Flags: W
HStem: 706 21G<178.161 242.565>
LayerCount: 2
Fore
SplineSet
105 768 m 29
 164 790 l 29
 213 756 l 29
 275 792 l 29
 315 775 l 29
 213 706 l 29
 105 768 l 29
45 436 m 0
 5.375 483.55078125 12.0634765625 566.143554688 67 620 c 0
 172.001953125 722.9375 384.540039062 656.489257812 426 597 c 0
 349 459 l 1
 277.319335938 493.92578125 169.846679688 514.775390625 195 426 c 0
 217.094726562 348.020507812 320 210 367 144 c 1
 400 63 334.376953125 -30.064453125 253 -26 c 0
 115.157226562 -19.1142578125 50 77 50 77 c 1
 109 136 l 1
 109 136 355 -73 153 275 c 0
 45 436 l 0
EndSplineSet
Validated: 33
EndChar

StartChar: scaron
Encoding: 353 353 201
Width: 436
Flags: W
HStem: 706 21G<178.161 242.565>
LayerCount: 2
Fore
SplineSet
105 768 m 25
 164 790 l 25
 213 756 l 25
 275 792 l 25
 315 775 l 25
 213 706 l 25
 105 768 l 25
45 436 m 0
 5.375 483.55078125 12.0634765625 566.143554688 67 620 c 0
 172.001953125 722.9375 384.540039062 656.489257812 426 597 c 0
 349 459 l 1
 277.319335938 493.92578125 169.846679688 514.775390625 195 426 c 0
 217.094726562 348.020507812 320 210 367 144 c 1
 400 63 334.376953125 -30.064453125 253 -26 c 0
 115.157226562 -19.1142578125 50 77 50 77 c 1
 109 136 l 1
 109 136 355 -73 153 275 c 0
 45 436 l 0
EndSplineSet
Validated: 33
EndChar

StartChar: uni0218
Encoding: 536 536 202
Width: 436
Flags: W
LayerCount: 2
Fore
SplineSet
279 -22 m 5
 296 -69 302 -99 225 -203 c 4
 202.015625 -234.043945312 252 -150 247 -105 c 4
 279 -22 l 5
135.391601562 -80.5517578125 m 4
 120.5 -47.248046875 140.7890625 -7.611328125 181 8 c 4
 221.208007812 23.6123046875 265.700195312 9.126953125 280.591796875 -24.1767578125 c 4
 295.484375 -57.482421875 275.192382812 -97.1181640625 234.984375 -112.729492188 c 4
 194.775390625 -128.340820312 150.284179688 -113.857421875 135.391601562 -80.5517578125 c 4
41 501 m 0
 1.375 548.55078125 8.0634765625 631.143554688 63 685 c 0
 168.001953125 787.9375 380.540039062 721.489257812 422 662 c 0
 345 524 l 1
 273.319335938 558.92578125 165.846679688 579.775390625 191 491 c 0
 213.094726562 413.020507812 316 275 363 209 c 1
 396 128 330.376953125 34.935546875 249 39 c 0
 111.157226562 45.8857421875 46 142 46 142 c 1
 105 201 l 1
 105 201 351 -8 149 340 c 0
 41 501 l 0
EndSplineSet
Validated: 37
EndChar

StartChar: abreve
Encoding: 259 259 203
Width: 390
Flags: W
LayerCount: 2
Fore
SplineSet
269 780 m 5
 317 724 l 1
 197 670 l 1
 73 744 l 1
 131 778 l 1
 193 718 l 1
 269 780 l 5
118 291 m 25
 165 433 l 1
 211 293 l 1
 118 291 l 25
18 -33 m 1
 192 -63 l 25
 191 157 l 1
 245 89 l 1
 262 -65 l 25
 374 -21 l 1
 254 615 l 1
 122 615 l 1
 18 -33 l 1
EndSplineSet
Validated: 9
EndChar

StartChar: uhungarumlaut
Encoding: 369 369 204
Width: 390
Flags: W
HStem: 664 20G<326.829 376> 722 21G<20 120.957>
VStem: 328 48<564.462 676>
LayerCount: 2
Fore
SplineSet
266 856 m 5
 238 768 l 5
 156 768 l 5
 94 722 l 5
 20 740 l 5
 122 830 l 5
 266 856 l 5
417 798 m 1
 389 710 l 1
 307 710 l 1
 245 664 l 1
 171 682 l 1
 273 772 l 1
 417 798 l 1
12 602 m 1
 140 676 l 1
 189 242 l 17
 231 24 293 108 302 240 c 0
 328 684 l 9
 376 676 l 1
 375 198 l 1
 375 198 355 -38 229 -6 c 0
 51.2705078125 39.1376953125 12 602 12 602 c 1
EndSplineSet
Validated: 33
EndChar

StartChar: eogonek
Encoding: 281 281 205
Width: 434
Flags: W
HStem: 710 20G<216.2 353.588>
LayerCount: 2
Fore
SplineSet
70 58 m 25
 11 680 l 1
 353 730 l 1
 356 628 l 25
 124 566 l 1
 168 432 l 1
 278 448 l 25
 296 324 l 25
 208 294 l 1
 214 234 l 1
 424 242 l 9
 413 29 l 25
 395 0 l 1
 371 -9 l 1
 355 -40 l 1
 364 -77 l 1
 391 -100 l 1
 409 -112 l 5
 410 -133 l 1
 384 -138 l 25
 371 -133 l 25
 349 -121 l 25
 331 -106 l 1
 317 -79 l 1
 312 -58 l 1
 313 -25 l 1
 324 0 l 1
 342 24 l 1
 367 39 l 1
 70 58 l 25
EndSplineSet
Validated: 1
EndChar

StartChar: cacute
Encoding: 263 263 206
Width: 494
Flags: W
HStem: 706 20G<137.286 172.222>
LayerCount: 2
Fore
SplineSet
387 748 m 1
 308.831054688 804.385742188 l 1
 211 775 l 5
 133 701 l 1
 167 659 l 1
 235 717 l 1
 387 748 l 1
418 -16 m 0
 372 81 l 1
 372 81 101 18 127 254 c 0
 160.728515625 560.154296875 419 447 419 447 c 0
 485 591 l 1
 -50.1611328125 916.02734375 -200.555664062 -163.504882812 418 -16 c 0
EndSplineSet
Validated: 41
EndChar

StartChar: numbersign
Encoding: 35 35 207
Width: 595
Flags: W
LayerCount: 2
Fore
SplineSet
32 407 m 1
 562 459 l 1
 578 527 l 1
 60 489 l 1
 32 407 l 1
38 222 m 1
 556 281 l 1
 574 378 l 1
 18 272 l 1
 38 222 l 1
299 30 m 1
 381 30 l 1
 583 696 l 1
 453 698 l 1
 299 30 l 1
43 30 m 1
 179 32 l 1
 341 694 l 1
 251 700 l 1
 43 30 l 1
EndSplineSet
Validated: 5
EndChar

StartChar: lslash
Encoding: 322 322 208
Width: 438
Flags: W
HStem: 690 20G<47 119.627> 690 20G<47 119.627>
VStem: 11 108<572.233 681.944>
LayerCount: 2
Fore
SplineSet
-27 361 m 29x20
 401 428 l 29
 370 366 l 29
 0 266 l 29
 -27 361 l 29x20
54 18 m 25
 11 680 l 1
 119 710 l 25xa0
 135 200 l 25
 355 232 l 1
 422 18 l 25
 54 18 l 25
EndSplineSet
Validated: 5
EndChar

StartChar: Eogonek
Encoding: 280 280 209
Width: 434
Flags: W
HStem: 710 20G<216.2 353.588>
LayerCount: 2
Fore
SplineSet
70 58 m 25
 11 680 l 1
 353 730 l 1
 356 628 l 25
 124 566 l 1
 168 432 l 1
 278 448 l 25
 296 324 l 25
 208 294 l 1
 214 234 l 1
 424 242 l 9
 413 29 l 25
 395 0 l 1
 371 -9 l 1
 355 -40 l 1
 364 -77 l 1
 391 -100 l 1
 409 -112 l 5
 410 -133 l 1
 384 -138 l 25
 371 -133 l 25
 349 -121 l 25
 331 -106 l 1
 317 -79 l 1
 312 -58 l 1
 313 -25 l 1
 324 0 l 1
 342 24 l 1
 367 39 l 1
 70 58 l 25
EndSplineSet
Validated: 1
EndChar

StartChar: uni021B
Encoding: 539 539 210
Width: 450
Flags: W
HStem: 694 20G<11 432.259>
VStem: 182 100<86 532>
LayerCount: 2
Fore
SplineSet
182 86 m 29
 181 532 l 1
 77 512 l 25
 11 706 l 25
 443 714 l 25
 385 606 l 25
 277 564 l 9
 282 30 l 25
 266 8 l 25
 242 -13 l 25
 238 -45 l 25
 252 -75 l 25
 284 -90 l 25
 280 -107 l 25
 254 -110 l 25
 230 -106 l 25
 208 -88 l 25
 186 -49 l 25
 196 -7 l 25
 216 16 l 25
 252 40 l 25
 182 86 l 29
EndSplineSet
Validated: 1
EndChar

StartChar: uni021A
Encoding: 538 538 211
Width: 450
Flags: W
VStem: 181 96<86 532> 182 102<86 532>
LayerCount: 2
Fore
SplineSet
182 86 m 29x40
 181 532 l 1
 77 512 l 25
 11 706 l 25
 443 714 l 25
 385 606 l 25
 277 564 l 9x80
 282 30 l 25
 266 8 l 25
 242 -13 l 25
 238 -45 l 25
 252 -75 l 25
 284 -90 l 25
 280 -107 l 25
 254 -110 l 25
 230 -106 l 25
 208 -88 l 25
 186 -49 l 25
 196 -7 l 25
 216 16 l 25
 252 40 l 25
 182 86 l 29x40
EndSplineSet
Validated: 1
EndChar

StartChar: Uhungarumlaut
Encoding: 368 368 212
Width: 390
Flags: W
HStem: 664 20G<326.829 376>
VStem: 328 48<564.462 676>
LayerCount: 2
Fore
SplineSet
266 856 m 5
 238 768 l 5
 156 768 l 5
 94 722 l 5
 20 740 l 5
 122 830 l 5
 266 856 l 5
417 798 m 1
 389 710 l 1
 307 710 l 1
 245 664 l 1
 171 682 l 1
 273 772 l 1
 417 798 l 1
12 602 m 1
 140 676 l 1
 189 242 l 17
 231 24 293 108 302 240 c 0
 328 684 l 9
 376 676 l 1
 375 198 l 1
 375 198 355 -38 229 -6 c 0
 51.2705078125 39.1376953125 12 602 12 602 c 1
EndSplineSet
Validated: 33
EndChar

StartChar: sacute
Encoding: 347 347 213
Width: 436
Flags: W
HStem: 686 21G<128 172> 726 56<216 308>
LayerCount: 2
Fore
SplineSet
128 686 m 1
 128 726 l 1
 198 782 l 5
 308 782 l 1
 326 722 l 1
 216 726 l 1
 128 686 l 1
45 436 m 0
 5.375 483.55078125 12.0634765625 566.143554688 67 620 c 0
 172.001953125 722.9375 384.540039062 656.489257812 426 597 c 0
 349 459 l 1
 277.319335938 493.92578125 169.846679688 514.775390625 195 426 c 0
 217.094726562 348.020507812 320 210 367 144 c 1
 400 63 334.376953125 -30.064453125 253 -26 c 0
 115.157226562 -19.1142578125 50 77 50 77 c 1
 109 136 l 1
 109 136 355 -73 153 275 c 0
 45 436 l 0
EndSplineSet
Validated: 33
EndChar

StartChar: Sacute
Encoding: 346 346 214
Width: 436
Flags: W
HStem: 686 21G<128 172> 726 56<216 308>
LayerCount: 2
Fore
SplineSet
128 686 m 1
 128 726 l 1
 198 782 l 5
 308 782 l 1
 326 722 l 1
 216 726 l 1
 128 686 l 1
45 436 m 0
 5.375 483.55078125 12.0634765625 566.143554688 67 620 c 0
 172.001953125 722.9375 384.540039062 656.489257812 426 597 c 0
 349 459 l 1
 277.319335938 493.92578125 169.846679688 514.775390625 195 426 c 0
 217.094726562 348.020507812 320 210 367 144 c 1
 400 63 334.376953125 -30.064453125 253 -26 c 0
 115.157226562 -19.1142578125 50 77 50 77 c 1
 109 136 l 1
 109 136 355 -73 153 275 c 0
 45 436 l 0
EndSplineSet
Validated: 33
EndChar

StartChar: Zacute
Encoding: 377 377 215
Width: 494
Flags: W
LayerCount: 2
Fore
SplineSet
370 790 m 1
 342 702 l 1
 260 702 l 1
 198 656 l 1
 124 674 l 1
 226 764 l 1
 370 790 l 1
36 400 m 29
 10 648 l 5
 410 618 l 29
 226 268 l 5
 486 272 l 5
 420 4 l 29
 72 66 l 5
 228 428 l 5
 36 400 l 29
EndSplineSet
Validated: 1
EndChar

StartChar: zacute
Encoding: 378 378 216
Width: 494
Flags: W
LayerCount: 2
Fore
SplineSet
370 790 m 1
 342 702 l 1
 260 702 l 1
 198 656 l 1
 124 674 l 1
 226 764 l 1
 370 790 l 1
36 400 m 29
 10 648 l 5
 410 618 l 29
 226 268 l 5
 486 272 l 5
 420 4 l 29
 72 66 l 5
 228 428 l 5
 36 400 l 29
EndSplineSet
Validated: 1
EndChar

StartChar: Zdotaccent
Encoding: 379 379 217
Width: 494
Flags: W
LayerCount: 2
Fore
SplineSet
176 690 m 4
 163.692382812 719.538085938 180.4609375 754.692382812 213.692382812 768.538085938 c 4
 246.922851562 782.384765625 283.692382812 769.538085938 296 740 c 4
 308.307617188 710.4609375 291.538085938 675.307617188 258.307617188 661.4609375 c 4
 225.077148438 647.615234375 188.307617188 660.4609375 176 690 c 4
36 400 m 25
 10 648 l 1
 410 618 l 25
 226 268 l 1
 486 272 l 1
 420 4 l 25
 72 66 l 1
 228 428 l 1
 36 400 l 25
EndSplineSet
Validated: 33
EndChar

StartChar: Zcaron
Encoding: 381 381 218
Width: 494
Flags: W
LayerCount: 2
Fore
SplineSet
309 793 m 1
 353 749 l 5
 227 677 l 1
 125 729 l 1
 173 785 l 1
 235 723 l 1
 309 793 l 1
36 400 m 25
 10 648 l 1
 410 618 l 25
 226 268 l 1
 486 272 l 1
 420 4 l 25
 72 66 l 1
 228 428 l 1
 36 400 l 25
EndSplineSet
Validated: 1
EndChar

StartChar: zcaron
Encoding: 382 382 219
Width: 494
Flags: W
LayerCount: 2
Fore
SplineSet
309 793 m 1
 353 749 l 5
 227 677 l 1
 125 729 l 1
 173 785 l 1
 235 723 l 1
 309 793 l 1
36 400 m 25
 10 648 l 1
 410 618 l 25
 226 268 l 1
 486 272 l 1
 420 4 l 25
 72 66 l 1
 228 428 l 1
 36 400 l 25
EndSplineSet
Validated: 1
EndChar

StartChar: zdotaccent
Encoding: 380 380 220
Width: 494
Flags: W
LayerCount: 2
Fore
SplineSet
176 690 m 4
 163.692382812 719.538085938 180.4609375 754.692382812 213.692382812 768.538085938 c 4
 246.922851562 782.384765625 283.692382812 769.538085938 296 740 c 4
 308.307617188 710.4609375 291.538085938 675.307617188 258.307617188 661.4609375 c 4
 225.077148438 647.615234375 188.307617188 660.4609375 176 690 c 4
36 400 m 25
 10 648 l 1
 410 618 l 25
 226 268 l 1
 486 272 l 1
 420 4 l 25
 72 66 l 1
 228 428 l 1
 36 400 l 25
EndSplineSet
Validated: 33
EndChar

StartChar: Ycircumflex
Encoding: 374 374 221
Width: 470
Flags: W
HStem: 702 20G<229.545 285>
LayerCount: 2
Fore
SplineSet
119 712 m 29
 199 678 l 25
 255 722 l 25
 333 670 l 25
 365 730 l 25
 253 794 l 25
 119 712 l 29
187 -78 m 1
 315 -78 l 1
 317 172 l 1
 453 518 l 1
 365 586 l 25
 278 262 l 1
 166 644 l 25
 23 540 l 25
 185 118 l 1
 187 -78 l 1
EndSplineSet
Validated: 9
EndChar

StartChar: ycircumflex
Encoding: 375 375 222
Width: 470
Flags: W
HStem: 702 20G<229.545 285>
LayerCount: 2
Fore
SplineSet
119 712 m 29
 199 678 l 25
 255 722 l 25
 333 670 l 25
 365 730 l 25
 253 794 l 25
 119 712 l 29
187 -78 m 1
 315 -78 l 1
 317 172 l 1
 453 518 l 1
 365 586 l 25
 278 262 l 1
 166 644 l 25
 23 540 l 25
 185 118 l 1
 187 -78 l 1
EndSplineSet
Validated: 9
EndChar

StartChar: Rcaron
Encoding: 344 344 223
Width: 372
Flags: W
HStem: 583.62 90.3799<164.1 243.393> 696 21G<186.012 262.524>
LayerCount: 2
Fore
SplineSet
101 779 m 1
 149 796 l 1
 217 752 l 5
 273 780 l 1
 317 738 l 1
 213 696 l 1
 101 779 l 1
154.349609375 434.139648438 m 1
 194.650390625 442.219726562 216.279296875 437.389648438 236.25 490.700195312 c 0
 261.599609375 558.370117188 238.200195312 568.469726562 228.450195312 582.610351562 c 1
 164.099609375 583.620117188 l 1
 154.349609375 434.139648438 l 1
24 10 m 25
 75 674 l 1
 271 674 l 17
 311 664 335 640 347 604 c 24
 363 556 355 522 337 476 c 24
 323 439 296 431 269 402 c 25
 317 358 l 1
 338 104 l 25
 254 68 l 25
 237 282 l 1
 195 338 l 1
 178 48 l 25
 24 10 l 25
EndSplineSet
Validated: 33
EndChar

StartChar: rcaron
Encoding: 345 345 224
Width: 372
Flags: W
HStem: 621.62 90.3799<162.1 241.393>
LayerCount: 2
Fore
SplineSet
101 779 m 1
 149 796 l 1
 217 752 l 5
 273 780 l 1
 317 738 l 1
 213 696 l 1
 101 779 l 1
154.349609375 434.139648438 m 1
 194.650390625 442.219726562 216.279296875 437.389648438 236.25 490.700195312 c 0
 261.599609375 558.370117188 238.200195312 568.469726562 228.450195312 582.610351562 c 1
 164.099609375 583.620117188 l 1
 154.349609375 434.139648438 l 1
24 10 m 25
 75 674 l 1
 271 674 l 17
 311 664 335 640 347 604 c 24
 363 556 355 522 337 476 c 24
 323 439 296 431 269 402 c 25
 317 358 l 1
 338 104 l 25
 254 68 l 25
 237 282 l 1
 195 338 l 1
 178 48 l 25
 24 10 l 25
EndSplineSet
Validated: 33
EndChar

StartChar: Dcaron
Encoding: 270 270 225
Width: 522
Flags: W
HStem: 580 117<125 226.917> 706 21G<180.161 244.565>
LayerCount: 2
Fore
SplineSet
107 768 m 25
 166 790 l 25
 215 756 l 25
 277 792 l 25
 317 775 l 25
 215 706 l 25
 107 768 l 25
169 130 m 25
 193 134 231 140 231 140 c 0
 377 230 340 528 187 580 c 9
 125 578 l 25
 169 130 l 25
79 -14 m 1
 9 696 l 1
 287 697 l 1
 588.61328125 638.172851562 555.346679688 51.8798828125 311 3 c 0
 311 3 202 -14 79 -14 c 1
EndSplineSet
Validated: 33
EndChar

StartChar: dcaron
Encoding: 271 271 226
Width: 522
Flags: W
HStem: 594 117<131 232.917>
LayerCount: 2
Fore
SplineSet
107 768 m 25
 166 790 l 25
 215 756 l 25
 277 792 l 25
 317 775 l 25
 215 706 l 25
 107 768 l 25
169 130 m 25
 193 134 231 140 231 140 c 0
 377 230 340 528 187 580 c 9
 125 578 l 25
 169 130 l 25
79 -14 m 1
 9 696 l 1
 287 697 l 1
 588.61328125 638.172851562 555.346679688 51.8798828125 311 3 c 0
 311 3 202 -14 79 -14 c 1
EndSplineSet
Validated: 33
EndChar

StartChar: Amacron
Encoding: 256 256 227
Width: 390
Flags: W
HStem: 715 48<81 276.5> 723 46<93.5 307>
LayerCount: 2
Fore
SplineSet
63 715 m 29x80
 307 723 l 25
 311 769 l 25x40
 81 763 l 25
 63 715 l 29x80
118 291 m 25
 165 433 l 1
 211 293 l 1
 118 291 l 25
18 -33 m 1
 192 -63 l 25
 191 157 l 1
 245 89 l 1
 262 -65 l 25
 374 -21 l 1
 254 615 l 1
 122 615 l 1
 18 -33 l 1
EndSplineSet
Validated: 9
EndChar

StartChar: amacron
Encoding: 257 257 228
Width: 390
Flags: W
HStem: 715 48<81 276.5> 723 46<93.5 307>
LayerCount: 2
Fore
SplineSet
63 715 m 29x80
 307 723 l 25
 311 769 l 25x40
 81 763 l 25
 63 715 l 29x80
118 291 m 25
 165 433 l 1
 211 293 l 1
 118 291 l 25
18 -33 m 1
 192 -63 l 25
 191 157 l 1
 245 89 l 1
 262 -65 l 25
 374 -21 l 1
 254 615 l 1
 122 615 l 1
 18 -33 l 1
EndSplineSet
Validated: 9
EndChar

StartChar: uni0189
Encoding: 393 393 229
Width: 540
Flags: W
HStem: 594 117<149 250.917>
LayerCount: 2
Fore
SplineSet
6 338 m 1
 -14 388 l 1
 316 405 l 1
 320 361 l 1
 6 338 l 1
193 144 m 25
 217 148 255 154 255 154 c 0
 401 244 364 542 211 594 c 9
 149 592 l 25
 193 144 l 25
103 0 m 1
 33 710 l 1
 311 711 l 1
 612.61328125 652.172851562 579.346679688 65.8798828125 335 17 c 0
 335 17 226 0 103 0 c 1
EndSplineSet
Validated: 37
EndChar

StartChar: Ecaron
Encoding: 282 282 230
Width: 434
Flags: W
LayerCount: 2
Fore
SplineSet
120 750 m 1
 144 785 l 1
 233 712 l 1
 306 788 l 1
 346 748 l 1
 232 674 l 1
 120 750 l 1
11 568 m 1
 353 618 l 1
 356 516 l 25
 124 454 l 1
 168 320 l 1
 278 336 l 25
 296 212 l 25
 208 182 l 1
 214 122 l 1
 424 130 l 1
 422 -92 l 25
 70 -54 l 25
 11 568 l 1
EndSplineSet
Validated: 1
EndChar

StartChar: ecaron
Encoding: 283 283 231
Width: 434
Flags: W
HStem: 692 20G<208.616 252.211>
LayerCount: 2
Fore
SplineSet
120 750 m 1
 144 785 l 1
 233 712 l 1
 306 788 l 1
 346 748 l 1
 232 674 l 1
 120 750 l 1
11 568 m 1
 353 618 l 1
 356 516 l 25
 124 454 l 1
 168 320 l 1
 278 336 l 25
 296 212 l 25
 208 182 l 1
 214 122 l 1
 424 130 l 1
 422 -92 l 25
 70 -54 l 25
 11 568 l 1
EndSplineSet
Validated: 1
EndChar

StartChar: Uring
Encoding: 366 366 232
Width: 390
Flags: W
HStem: 664 20G<326.829 376>
VStem: 328 48<564.462 676>
LayerCount: 2
Fore
SplineSet
178.180664062 704.772460938 m 0
 186.612304688 685.12890625 211.798828125 676.586914062 234.561523438 685.793945312 c 0
 257.325195312 695.001953125 268.811523438 718.37890625 260.380859375 738.022460938 c 0
 251.950195312 757.665039062 226.763671875 766.208007812 204 757 c 0
 181.237304688 747.79296875 169.75 724.415039062 178.180664062 704.772460938 c 0
158 697 m 0
 145.692382812 726.538085938 162.4609375 761.692382812 195.692382812 775.538085938 c 0
 228.922851562 789.384765625 265.692382812 776.538085938 278 747 c 0
 290.307617188 717.4609375 273.538085938 682.307617188 240.307617188 668.4609375 c 0
 207.077148438 654.615234375 170.307617188 667.4609375 158 697 c 0
12 602 m 1
 140 676 l 1
 189 242 l 17
 231 24 293 108 302 240 c 0
 328 684 l 9
 376 676 l 1
 375 198 l 1
 375 198 355 -38 229 -6 c 0
 51.2705078125 39.1376953125 12 602 12 602 c 1
EndSplineSet
Validated: 33
EndChar

StartChar: uring
Encoding: 367 367 233
Width: 390
Flags: W
HStem: 664 20G<326.829 376>
VStem: 328 48<564.462 676>
LayerCount: 2
Fore
SplineSet
178.180664062 704.772460938 m 0
 186.612304688 685.12890625 211.798828125 676.586914062 234.561523438 685.793945312 c 0
 257.325195312 695.001953125 268.811523438 718.37890625 260.380859375 738.022460938 c 0
 251.950195312 757.665039062 226.763671875 766.208007812 204 757 c 0
 181.237304688 747.79296875 169.75 724.415039062 178.180664062 704.772460938 c 0
158 697 m 0
 145.692382812 726.538085938 162.4609375 761.692382812 195.692382812 775.538085938 c 0
 228.922851562 789.384765625 265.692382812 776.538085938 278 747 c 0
 290.307617188 717.4609375 273.538085938 682.307617188 240.307617188 668.4609375 c 0
 207.077148438 654.615234375 170.307617188 667.4609375 158 697 c 0
12 602 m 1
 140 676 l 1
 189 242 l 17
 231 24 293 108 302 240 c 0
 328 684 l 9
 376 676 l 1
 375 198 l 1
 375 198 355 -38 229 -6 c 0
 51.2705078125 39.1376953125 12 602 12 602 c 1
EndSplineSet
Validated: 33
EndChar

StartChar: Tcaron
Encoding: 356 356 234
Width: 450
Flags: W
HStem: 696 21G<191.714 253>
VStem: 174 96<36 482> 175 102<36 482>
LayerCount: 2
Fore
SplineSet
101 766 m 1x80
 145 797 l 1
 220 742 l 1
 288 790 l 1
 303 756 l 1
 228 696 l 25
 101 766 l 1x80
175 36 m 25xa0
 277 -32 l 25xa0
 270 514 l 1
 378 556 l 25
 436 664 l 25
 4 656 l 25
 70 462 l 25
 174 482 l 1xc0
 175 36 l 25xa0
EndSplineSet
Validated: 9
EndChar

StartChar: tcaron
Encoding: 357 357 235
Width: 450
Flags: W
VStem: 181 96<86 532> 182 102<86 532>
LayerCount: 2
Fore
SplineSet
101 766 m 1x00
 145 797 l 1
 220 742 l 1
 288 790 l 1
 303 756 l 1
 228 696 l 25
 101 766 l 1x00
175 36 m 25
 277 -32 l 25x80
 270 514 l 1
 378 556 l 25
 436 664 l 25
 4 656 l 25
 70 462 l 25
 174 482 l 1
 175 36 l 25
EndSplineSet
Validated: 9
EndChar

StartChar: Ncaron
Encoding: 327 327 236
Width: 582
Flags: W
HStem: 746 20G<172.846 213.667>
LayerCount: 2
Fore
SplineSet
401 771 m 1
 409 720 l 5
 293 628 l 1
 163 714 l 1
 179 766 l 1
 283 706 l 1
 401 771 l 1
23 -54 m 1
 55 590 l 1
 323 340 l 1
 283 584 l 1
 565 550 l 1
 533 -72 l 1
 243 230 l 1
 325 -128 l 1
 23 -54 l 1
EndSplineSet
Validated: 1
EndChar

StartChar: ncaron
Encoding: 328 328 237
Width: 582
Flags: W
HStem: 746 20G<172.846 213.667>
LayerCount: 2
Fore
SplineSet
401 771 m 1
 409 720 l 5
 293 628 l 1
 163 714 l 1
 179 766 l 1
 283 706 l 1
 401 771 l 1
23 -54 m 1
 55 590 l 1
 323 340 l 1
 283 584 l 1
 565 550 l 1
 533 -72 l 1
 243 230 l 1
 325 -128 l 1
 23 -54 l 1
EndSplineSet
Validated: 1
EndChar
